<svg width="104" height="104" viewBox="0 0 104 104" fill="none" xmlns="http://www.w3.org/2000/svg">
<g filter="url(#filter0_d_442_7836)">
<rect x="15" y="10" width="64" height="64" rx="32" fill="#333942"/>
</g>
<path d="M45.5716 41.9944C45.5716 42.3258 45.4211 42.6436 45.1532 42.8779C44.8853 43.1123 44.5219 43.2439 44.143 43.2439H35.5715C35.1926 43.2439 34.8293 43.1123 34.5614 42.8779C34.2934 42.6436 34.1429 42.3258 34.1429 41.9944C34.1429 41.663 34.2934 41.3452 34.5614 41.1108C34.8293 40.8765 35.1926 40.7448 35.5715 40.7448H44.143C44.5219 40.7448 44.8853 40.8765 45.1532 41.1108C45.4211 41.3452 45.5716 41.663 45.5716 41.9944ZM44.143 35.7467H35.5715C35.1926 35.7467 34.8293 35.8784 34.5614 36.1127C34.2934 36.347 34.1429 36.6649 34.1429 36.9963C34.1429 37.3276 34.2934 37.6455 34.5614 37.8798C34.8293 38.1141 35.1926 38.2458 35.5715 38.2458H44.143C44.5219 38.2458 44.8853 38.1141 45.1532 37.8798C45.4211 37.6455 45.5716 37.3276 45.5716 36.9963C45.5716 36.6649 45.4211 36.347 45.1532 36.1127C44.8853 35.8784 44.5219 35.7467 44.143 35.7467ZM64.1432 45.9726V55.7392C64.1455 55.9595 64.0811 56.1764 63.9567 56.3679C63.8322 56.5595 63.6521 56.7188 63.4345 56.8298C63.217 56.9408 62.9697 56.9995 62.7179 57C62.466 57.0005 62.2185 56.9427 62.0003 56.8326L57.7146 54.6865L53.4288 56.8326C53.2107 56.9427 52.9632 57.0005 52.7113 57C52.4595 56.9995 52.2122 56.9408 51.9947 56.8298C51.7771 56.7188 51.597 56.5595 51.4725 56.3679C51.348 56.1764 51.2837 55.9595 51.286 55.7392V51.9906H29.8572C29.0994 51.9906 28.3727 51.7273 27.8368 51.2587C27.301 50.79 27 50.1544 27 49.4916V29.4991C27 28.8363 27.301 28.2006 27.8368 27.732C28.3727 27.2633 29.0994 27 29.8572 27H61.2861C62.0438 27 62.7706 27.2633 63.3064 27.732C63.8422 28.2006 64.1432 28.8363 64.1432 29.4991V34.2676C65.0463 35.024 65.765 35.9325 66.2559 36.9383C66.7469 37.9441 67 39.0264 67 40.1201C67 41.2137 66.7469 42.2961 66.2559 43.3019C65.765 44.3077 65.0463 45.2162 64.1432 45.9726ZM51.286 49.4916V45.9726C49.7292 44.6594 48.7453 42.912 48.5041 41.0321C48.2629 39.1522 48.7796 37.2576 49.9649 35.6752C51.1502 34.0929 52.9298 32.9221 54.9967 32.3648C57.0635 31.8076 59.2879 31.8989 61.2861 32.6229V29.4991H29.8572V49.4916H51.286ZM61.2861 47.6173C60.1547 48.0307 58.9407 48.2436 57.7146 48.2436C56.4884 48.2436 55.2745 48.0307 54.1431 47.6173V53.5869L57.0003 52.1562C57.2162 52.0483 57.4606 51.9915 57.7092 51.9915C57.9579 51.9915 58.2023 52.0483 58.4182 52.1562L61.2753 53.5869L61.2861 47.6173ZM64.1432 40.1201C64.1432 39.008 63.7662 37.9209 63.0598 36.9962C62.3534 36.0715 61.3494 35.3508 60.1747 34.9252C59 34.4996 57.7075 34.3883 56.4604 34.6052C55.2134 34.8222 54.0679 35.3577 53.1689 36.1441C52.2698 36.9305 51.6575 37.9324 51.4095 39.0231C51.1614 40.1138 51.2887 41.2444 51.7753 42.2719C52.2619 43.2993 53.0858 44.1775 54.143 44.7953C55.2002 45.4132 56.4431 45.743 57.7146 45.743C58.5588 45.743 59.3948 45.5975 60.1747 45.315C60.9547 45.0324 61.6634 44.6182 62.2603 44.0961C62.8573 43.5739 63.3308 42.9541 63.6539 42.2719C63.9769 41.5897 64.1432 40.8585 64.1432 40.1201Z" fill="#C5A663"/>
<defs>
<filter id="filter0_d_442_7836" x="0" y="0" width="104" height="104" filterUnits="userSpaceOnUse" color-interpolation-filters="sRGB">
<feFlood flood-opacity="0" result="BackgroundImageFix"/>
<feColorMatrix in="SourceAlpha" type="matrix" values="0 0 0 0 0 0 0 0 0 0 0 0 0 0 0 0 0 0 127 0" result="hardAlpha"/>
<feMorphology radius="4" operator="erode" in="SourceAlpha" result="effect1_dropShadow_442_7836"/>
<feOffset dx="5" dy="10"/>
<feGaussianBlur stdDeviation="12"/>
<feComposite in2="hardAlpha" operator="out"/>
<feColorMatrix type="matrix" values="0 0 0 0 0.466667 0 0 0 0 0.403922 0 0 0 0 0.831373 0 0 0 0.75 0"/>
<feBlend mode="normal" in2="BackgroundImageFix" result="effect1_dropShadow_442_7836"/>
<feBlend mode="normal" in="SourceGraphic" in2="effect1_dropShadow_442_7836" result="shape"/>
</filter>
</defs>
</svg>
