<svg width="104" height="104" viewBox="0 0 104 104" fill="none" xmlns="http://www.w3.org/2000/svg">
<g filter="url(#filter0_d_442_7618)">
<rect x="15" y="10" width="64" height="64" rx="32" fill="#333942"/>
</g>
<path d="M65.5714 27H52.7143C51.6054 27 50.5117 27.2259 49.5199 27.6598C48.5281 28.0938 47.6653 28.7238 47 29.5C46.3347 28.7238 45.4719 28.0938 44.4801 27.6598C43.4883 27.2259 42.3946 27 41.2857 27H28.4286C28.0497 27 27.6863 27.1317 27.4184 27.3661C27.1505 27.6005 27 27.9185 27 28.25V50.75C27 51.0815 27.1505 51.3995 27.4184 51.6339C27.6863 51.8683 28.0497 52 28.4286 52H41.2857C42.4224 52 43.5124 52.3951 44.3162 53.0983C45.1199 53.8016 45.5714 54.7554 45.5714 55.75C45.5714 56.0815 45.7219 56.3995 45.9898 56.6339C46.2578 56.8683 46.6211 57 47 57C47.3789 57 47.7422 56.8683 48.0102 56.6339C48.2781 56.3995 48.4286 56.0815 48.4286 55.75C48.4286 54.7554 48.8801 53.8016 49.6838 53.0983C50.4876 52.3951 51.5776 52 52.7143 52H65.5714C65.9503 52 66.3137 51.8683 66.5816 51.6339C66.8495 51.3995 67 51.0815 67 50.75V28.25C67 27.9185 66.8495 27.6005 66.5816 27.3661C66.3137 27.1317 65.9503 27 65.5714 27ZM41.2857 49.5H29.8571V29.5H41.2857C42.4224 29.5 43.5124 29.8951 44.3162 30.5983C45.1199 31.3016 45.5714 32.2554 45.5714 33.25V50.75C44.3362 49.9367 42.8316 49.4978 41.2857 49.5ZM64.1429 49.5H52.7143C51.1684 49.4978 49.6638 49.9367 48.4286 50.75V33.25C48.4286 32.2554 48.8801 31.3016 49.6838 30.5983C50.4876 29.8951 51.5776 29.5 52.7143 29.5H64.1429V49.5Z" fill="#C5A663"/>
<defs>
<filter id="filter0_d_442_7618" x="0" y="0" width="104" height="104" filterUnits="userSpaceOnUse" color-interpolation-filters="sRGB">
<feFlood flood-opacity="0" result="BackgroundImageFix"/>
<feColorMatrix in="SourceAlpha" type="matrix" values="0 0 0 0 0 0 0 0 0 0 0 0 0 0 0 0 0 0 127 0" result="hardAlpha"/>
<feMorphology radius="4" operator="erode" in="SourceAlpha" result="effect1_dropShadow_442_7618"/>
<feOffset dx="5" dy="10"/>
<feGaussianBlur stdDeviation="12"/>
<feComposite in2="hardAlpha" operator="out"/>
<feColorMatrix type="matrix" values="0 0 0 0 0.756863 0 0 0 0 0.345098 0 0 0 0 0.996078 0 0 0 0.71 0"/>
<feBlend mode="normal" in2="BackgroundImageFix" result="effect1_dropShadow_442_7618"/>
<feBlend mode="normal" in="SourceGraphic" in2="effect1_dropShadow_442_7618" result="shape"/>
</filter>
</defs>
</svg>
