<?xml version="1.0" encoding="UTF-8"?>
<svg id="White_logo" data-name="White logo" xmlns="http://www.w3.org/2000/svg" viewBox="0 0 1000 400">
  <defs>
    <style>
      .cls-1 {
        fill: #fff;
        stroke-width: 0px;
      }
    </style>
  </defs>
  <g>
    <path class="cls-1" d="M603.18,236.54c.61-2.14,1.24-3.93,2.27-5.51.39-.6,1.3-.92,2.04-1.21,6.41-2.48,12.81-4.99,19.26-7.35,13.81-5.06,27.65-10.04,41.47-15.04.67-.24,1.36-.45,2.38-.79-.45,2.09-1.19,3.76-2.1,5.31-.31.53-1.21.77-1.89,1.02-9.29,3.42-18.61,6.77-27.89,10.23-11.29,4.21-22.54,8.51-33.8,12.77-.46.17-.93.31-1.74.58Z"/>
    <path class="cls-1" d="M661.45,303.87c-1.17,2.41-3.07,4.01-5.43,4.97-3.56,1.45-7.27,1.96-11.08,1.22-4.75-.92-6.5-4.35-4.39-8.73.54-1.12,1.32-2.13,2.02-3.17.45-.66.96-1.28,1.47-1.96-.85-.6-1.58-1.09-2.28-1.61-1.41-1.04-1.91-2.46-1.44-4.11.32-1.12.71-2.31,1.41-3.22,1.34-1.75,2.84-3.4,4.41-4.96,1.84-1.83,3.07-1.24,4.28,1.01.39.73.29,1.88.08,2.75-.3,1.2-.96,1.46-2.17.93-1.06-.46-2.03-.39-2.97.13-.81.45-1.55,1.21-1.26,2.13.21.65.96,1.34,1.62,1.58,1.58.57,3.24.4,4.74-.35,1.25-.63,2.4-1.45,3.58-2.19.53-.34,1.06-.69,1.58-1.04.15.08.29.15.44.23-.15.81-.19,1.66-.46,2.42-.68,1.88-2.09,3.18-3.69,4.3-2.18,1.53-4.39,3.02-6.45,4.68-.95.76-1.73,1.83-2.33,2.91-.79,1.41-.3,2.67,1.24,3.18,1.17.39,2.45.55,3.7.61,4.53.2,8.97-.32,13.39-1.72Z"/>
    <path class="cls-1" d="M760.51,221c.73.53,1.46,1.03,2.15,1.57.78.6,1.13,1.42.78,2.35-.48,1.29-1.08,2.54-1.69,3.93-1.33-.88-2.43-1.61-3.67-2.43-7.51,7.77-16.35,13.08-26.96,15.14l-.35-.54c.7-.46,1.37-.97,2.09-1.37,3.55-1.98,7.22-3.76,10.65-5.93,3.8-2.41,7.38-5.16,11.05-7.77.29-.2.49-.52.74-.8-1.3-.86-2.6-1.59-3.73-2.52-2.54-2.09-2.9-4.23-1.26-7.05,1.13-1.94,2.61-3.59,4.56-4.76,1.42-.85,2.9-1.59,4.58-.65,1.64.93,1.96,2.52,1.91,4.2-.03,1.25-.18,2.5-.34,3.75-.12.94-.34,1.88-.53,2.88ZM757.42,220.21c.91-2.93.48-4.71-1.01-5.26-1.16-.42-2.26.31-3.2,2.36,1.31.9,2.66,1.83,4.21,2.9Z"/>
    <path class="cls-1" d="M445.17,222.03c-.46-.36-.89-.73-1.35-1.06-1.91-1.4-3.6-.76-4.07,1.59-.17.86-.22,1.77-.17,2.65.16,2.95.41,5.89.6,8.84.1,1.55.19,3.1.18,4.65,0,1.02-.05,2.09-1.26,2.99-.4-.42-.89-.81-1.22-1.3-1.58-2.32-3.07-4.7-4.7-6.98-1.07-1.51-2.39-2.8-4.28-3.46-.48.61-.92,1.16-1.44,1.81-.81-.21-1.59-.38-2.35-.62-2.84-.9-3.27-1.5-2.96-4.53.44-4.37,2.14-5.58,6.4-3.49,2.87,1.41,4.82,3.87,6.64,6.39.81,1.13,1.56,2.3,2.68,3.4-.1-1.02-.22-2.04-.31-3.06-.21-2.43-.48-4.85-.61-7.29-.11-2.09.26-4.13,1.21-6.02,1.46-2.9,4.91-3.18,6.88-.59,1.27,1.68,1.37,4.12.14,6.08Z"/>
    <path class="cls-1" d="M819.93,312.19c.61-1.21,1.58-1.73,2.52-2.26,1.49-.82,3.03-1.55,4.5-2.4,3.03-1.75,5.56-4.12,8.04-6.58,2.25-2.23,4.58-4.42,7.14-6.27,2.84-2.05,6.02-2.61,9.42-.98,2.09,1.01,3.41.54,4.83-1.3.81-1.05,1.54-2.16,2.32-3.23.07-.1.27-.1.55-.19.25.58.45,1.19.77,1.74.59,1.01,1.55,1.33,2.66,1.21,1.17-.13,1.57-.94,1.67-2,.06-.58.17-1.18.35-1.73.23-.71.59-1.35,1.77-1.32.12,2.88,0,5.63-1.4,8.16-1.04,1.87-3.29,2.65-5.38,1.96-.7-.23-1.35-.59-2.25-.99-.61.58-1.28,1.24-1.97,1.87-1.44,1.34-3.11,1.79-4.89.86-4.32-2.26-8.03-1-11.43,1.89-2.7,2.3-5.25,4.77-7.95,7.07-2.95,2.5-6.51,3.73-10.23,4.54-.26.06-.54-.02-1.01-.04Z"/>
    <path class="cls-1" d="M477.69,223.04c-.64.32-1.21.61-1.89.95-.66-.61-1.33-1.19-1.94-1.81-2.05-2.1-2.1-3.31-.19-5.53.47-.55,1.08-1.01,1.68-1.42.98-.67,2.04-.65,2.83.23,1.07,1.19,2.33,2.39,2.9,3.83.88,2.24,1.27,4.68,1.79,7.05.21.98.21,2.01.36,3.53,1.17-2.52,2.03-4.62,3.1-6.6.98-1.81,2.2-3.49,3.32-5.22.12-.18.29-.33.45-.49,2.02-2.03,4.05-2.33,5.66-.84,1.66,1.53,1.7,4.29.06,6.23-.32.38-.77.65-1.29,1.09-.35-.5-.65-.89-.9-1.3-1.21-1.98-2.48-2.11-3.98-.31-.56.67-1.08,1.42-1.46,2.21-1.19,2.46-2.27,4.97-3.45,7.44-.73,1.53-1.5,3.05-2.4,4.48-.29.47-1.05.65-1.6.96-.26-.55-.71-1.09-.76-1.67-.18-1.91-.12-3.85-.33-5.75-.26-2.41-.58-4.83-1.96-7.06Z"/>
    <path class="cls-1" d="M411.27,221.4c-.29.86-.54,1.67-.85,2.45-1.78,4.54-3.64,9.07-4.37,13.92-.33,2.17-.3,4.41-.2,6.6.05.97.52,2.02,1.08,2.85,1.14,1.68,2.88,1.82,4.35.42.68-.65,1.18-1.49,1.74-2.27.4-.56.75-1.16,1.13-1.75.14.04.29.09.43.13.04.39.16.79.11,1.16-.35,2.73-.99,5.39-2.49,7.74-1.11,1.74-2.52,3.32-4.75,3.13-2.25-.19-3.67-1.82-4.56-3.79-1.1-2.42-1.25-5.02-1.01-7.61.73-7.87,3.54-15.05,7.47-21.83.34-.58.64-1.39,1.91-1.16Z"/>
    <path class="cls-1" d="M602.95,288.6c-.43,1.04-.68,1.58-.88,2.13-.77,2.18-2.29,3.46-4.45,4.26-8.24,3.06-16.44,6.22-24.65,9.34-1.28.49-2.57.96-4.21,1.58.89-2.99,1.81-5.2,4.75-6.26,8.47-3.05,16.87-6.32,25.3-9.5,1.22-.46,2.45-.92,4.15-1.55Z"/>
    <path class="cls-1" d="M904.65,208.93c.4,1.7.74,3.12,1.08,4.54.22.93.35,1.9.72,2.78.27.64.73,1.36,1.31,1.67.56.31,1.54.42,2.03.12.48-.29.85-1.24.78-1.85-.13-1.15-.61-2.27-.95-3.39-.46-1.54-.64-3.05.41-4.44.21-.28.52-.48.95-.86,1.36,3.46,2.54,6.74,2.01,10.37-.04.29-.09.58-.16.87-.97,3.94-3.66,5.07-7.16,3.01-.37-.22-.74-.45-1.03-.64-.83.79-1.52,1.55-2.31,2.2-2.78,2.3-5.94,1.2-6.63-2.34-.24-1.22-.25-2.49-.37-3.74-.06-.59-.08-1.18-.2-1.75-.49-2.28-.23-2.86,2.16-4.37.13.51.32.96.34,1.41.09,1.77.03,3.55.2,5.31.19,1.98,1.48,2.64,3.29,1.77,1.44-.69,2.36-1.77,2.2-3.49-.12-1.25-.24-2.49-.4-3.74-.17-1.35.12-2.47,1.77-3.44Z"/>
    <path class="cls-1" d="M886.35,211.9c.31-1.87,1.11-3.27,1.83-4.68.17-.33.68-.54,1.08-.68,9.41-3.48,18.82-6.94,28.24-10.4.19-.07.42-.03.64-.04-.27,2.78-1.56,4.54-3.87,5.41-8.77,3.29-17.53,6.59-26.3,9.88-.45.17-.92.3-1.61.52Z"/>
    <path class="cls-1" d="M558.96,220.93c-.44,1.37-.92,2.74-1.3,4.12-.61,2.2-1.28,4.39-1.67,6.64-.24,1.42-.24,2.97.05,4.38.47,2.23,2.33,2.64,3.91,1.01.55-.57,1.06-1.19,1.67-1.89.21,2.23-.55,5.11-1.65,6.46-1.87,2.31-4.96,1.95-5.97-.85-.54-1.48-.82-3.18-.74-4.75.24-5.1,1.92-9.8,4.41-14.23.23-.4.63-.7.96-1.05.11.06.23.11.34.17Z"/>
    <path class="cls-1" d="M799.52,236.98c-.59,1.79-1.08,3.63-1.8,5.37-.55,1.34-1.57,2.43-3.18,2.37-1.76-.06-2.83-1.23-3.37-2.78-.33-.96-.56-2.02-.53-3.03.18-5.73,1.98-11,4.74-15.97.19-.34.59-.56,1.04-.97.36,1.08-.19,1.74-.41,2.46-.86,2.82-1.8,5.62-2.56,8.47-.3,1.12-.32,2.35-.24,3.51.06.85.38,1.74.82,2.47.82,1.36,2.02,1.41,3.08.2.65-.75,1.17-1.62,1.75-2.43.22.11.43.22.65.33Z"/>
    <path class="cls-1" d="M431.88,130.62c2.71,1.93,5.04,3.58,7.35,5.25.68.49.89,1.11.5,1.92-1.03,2.19-2.15,4.33-3.85,6.45-2.96-1.46-5.52-3.37-8.42-5.28,1.44-2.73,2.83-5.35,4.41-8.34Z"/>
    <path class="cls-1" d="M839.95,117.82c1.29.58,2.05.83,2.72,1.25,1.18.73,2.41,1.45,3.41,2.4.49.46.74,1.47.65,2.18-.29,2.27-1.21,2.82-3.34,1.98-1.21-.48-2.4-1.16-3.42-1.98-1.69-1.38-2.09-3.12-1.5-5.35,1.22-4.65,3.93-7.8,8.37-9.59,5.41-2.18,10.76-4.52,16.19-6.66,9.14-3.6,18.28-7.2,27.49-10.61,12.47-4.62,25-9.05,37.5-13.57,1.24-.45,2.44-.99,4.02-1.63-.51,2.35-.75,4.46-2.83,5.64-1.02.58-2.12,1.04-3.23,1.45-14.22,5.21-28.5,10.24-42.65,15.64-12.35,4.72-24.54,9.85-36.78,14.83-1.43.58-2.82,1.3-4.17,2.06-.73.41-1.33,1.05-2.43,1.95Z"/>
    <path class="cls-1" d="M853.4,76.43c-1.1,3.69-3.18,5.61-6.35,6.82-20.08,7.67-40.11,15.47-60.15,23.26-3.03,1.18-5.98,2.54-8.98,3.81-.73.31-1.47.58-2.59,1.01.62-2.81.98-5.18,3.81-6.31,9.19-3.67,18.29-7.58,27.53-11.13,14.61-5.62,29.31-11.03,43.97-16.53.8-.3,1.63-.55,2.76-.93Z"/>
    <path class="cls-1" d="M486.38,104.72c.85-1.61,1.61-3.28,2.58-4.81.35-.56,1.14-.91,1.79-1.2,12.07-5.2,24.14-10.38,36.22-15.56,4.41-1.89,8.81-3.78,13.22-5.67.25-.11.52-.17,1.14-.37-.43,1.5-.66,2.81-1.2,3.97-.27.57-1.06.99-1.7,1.27-3.92,1.71-7.89,3.33-11.81,5.05-12.3,5.41-24.58,10.86-36.86,16.3-1,.44-1.96.95-2.95,1.42-.14-.14-.28-.27-.42-.41Z"/>
    <path class="cls-1" d="M732.62,101.67c1.06-.76,2.09-1.55,3.18-2.27,4.68-3.1,9.38-6.16,14.04-9.28.9-.6,1.67-1.41,2.45-2.08-.09-.23-.09-.33-.14-.36-3.06-2.13-3.46-3.19-2.68-6.9.33-1.58.65-3.17.96-4.76.52-2.71,2.17-3.71,4.84-2.91,5.36,1.61,8.84,6.73,8.38,12.1-.21,2.44-2.01,4.8-4.98,3.27-1.27-.66-2.1-.06-2.92.75-5.96,5.94-13.44,9.26-21.1,12.27-.58.23-1.21.36-1.82.53-.07-.12-.13-.25-.2-.37ZM755.83,81.34c0-1.29-1.74-2.89-2.96-2.68-.31.05-.65.33-.85.6-1.21,1.58-.68,2.95,1.36,3.68,1.6.57,2.46,0,2.45-1.6ZM757.83,80.21c-.83.86-1.11,2-.6,2.8.83,1.3,2.38,1.63,4.18,2.02-.58-2.31-1.71-3.76-3.58-4.82Z"/>
    <path class="cls-1" d="M691.84,74.64c-.65,1.45-1.18,2.99-2.02,4.32-.42.65-1.39,1.02-2.18,1.36-10.04,4.29-20.11,8.52-30.14,12.83-3.59,1.54-7.11,3.27-10.66,4.89-.84.38-1.72.67-2.59,1-.13-.13-.26-.25-.39-.38.66-1.51,1.22-3.08,2.02-4.51.31-.56,1.12-.91,1.78-1.2,8.97-3.97,17.93-7.95,26.94-11.84,4.88-2.1,9.83-4.03,14.75-6.03.68-.27,1.37-.5,2.06-.75.14.11.29.21.43.32Z"/>
    <path class="cls-1" d="M412,99.02c-.36.95-.72,1.9-1.09,2.85-2.14,5.36-3.95,10.82-4.87,16.55-.34,2.14-.37,4.26.2,6.37.4,1.47,1.18,2.71,2.39,3.65,1.44,1.11,2.94.96,4.07-.48.9-1.14,1.67-2.39,2.72-3.91.15.58.29.83.27,1.05-.35,3.33-1.11,6.55-2.74,9.52-1.09,1.99-2.57,3.49-5.04,3.36-2.45-.12-4.22-1.46-5.13-3.65-.67-1.61-1.14-3.36-1.34-5.1-.48-4.24.14-8.42,1.3-12.5,1.5-5.27,3.59-10.32,6.39-15.06.65-1.11,1.24-2.33,2.45-2.97.14.1.28.2.42.31Z"/>
    <path class="cls-1" d="M679.6,118.36c.64-2.93,1.35-5.06,4.1-6.43,8.35-4.17,17.04-7.48,25.7-10.89,4.47-1.76,8.97-3.44,13.46-5.14.73-.28,1.5-.47,2.68-.84-.58,1.69-.86,3.08-1.54,4.23-.43.72-1.41,1.24-2.25,1.58-4.19,1.66-8.47,3.11-12.61,4.86-8.98,3.79-17.9,7.72-26.85,11.59-.78.34-1.58.62-2.68,1.05Z"/>
    <path class="cls-1" d="M955.39,94.65c-.82-.64-1.4-1.07-1.97-1.52-2.46-1.93-3.16-4.04-2.24-7.04.75-2.43,2.33-4.29,4.46-5.59,2.49-1.53,5-.23,5.29,2.68.12,1.17.09,2.36.02,3.54-.07,1.1-.28,2.18-.43,3.25,2.82,2.73,2.93,4.84.3,7.34-.9-.5-1.84-1.03-2.87-1.6-6.4,7.94-14.77,12.67-24.66,15.88.63-1.86,1.93-2.22,2.92-2.89,4.51-3.08,9.08-6.06,13.53-9.23,1.96-1.39,3.68-3.13,5.64-4.82ZM957.57,88.82c.47-2.25-.02-3.37-1.46-3.83-1.16-.37-1.65-.02-2.34,1.87,1.21.63,2.47,1.27,3.8,1.96Z"/>
    <path class="cls-1" d="M611.59,96.54c-.93-.79-1.76-1.49-2.68-2.26-4.86,6.37-11.19,10.71-18.34,13.92-1.92.86-3.9,1.68-6.24,1.42,3.87-2.5,7.81-4.89,11.59-7.52,3.74-2.6,7.4-5.33,10.53-8.97-.99-.63-1.86-1.14-2.69-1.72-2.36-1.64-3.04-3.93-1.97-6.58.84-2.09,2.15-3.88,3.79-5.39,2.47-2.28,5.32-1.38,5.8,1.97.29,2.01,0,4.1-.08,6.16-.03.73-.21,1.36.42,2.03,2.49,2.69,2.47,3.85-.14,6.95ZM608.72,88.12c.3-1.56-.01-2.5-.57-3.38-.59-.93-1.49-1.23-2.49-.93-.43.13-.89.56-1.06.97-.11.27.19.89.48,1.1,1.06.74,2.2,1.38,3.63,2.25Z"/>
    <path class="cls-1" d="M442.89,84.7c-1.12-.71-2-1.39-2.98-1.85-1.28-.61-1.9-.33-2.39.99-.33.89-.49,1.85-.71,2.79-.99,4.17-1.97,8.34-2.97,12.5-.17.7-.47,1.36-.75,2.17-1.02-.46-1.19-1.3-1.45-2.01-1.05-2.76-2.06-5.54-3.04-8.33-.52-1.49-1.13-2.73-3.1-2.35-.46.09-.99-.21-1.49-.34-1.56-.41-3.05-.94-3.2-2.87-.16-2.07.67-3.76,2.24-5.06.7-.58,1.58-.48,2.3-.01.92.6,1.84,1.25,2.6,2.04,1.76,1.85,2.97,4.04,3.75,6.47.33,1.03.7,2.04,1.45,3.05.2-1.03.32-2.09.63-3.1.87-2.89,1.8-5.77,2.75-8.64.18-.55.52-1.06.84-1.55.81-1.22,1.74-2.25,3.42-1.92,1.41.28,2.96,1.85,3.19,3.36.25,1.64.14,3.24-1.09,4.67Z"/>
    <path class="cls-1" d="M808.44,119.32c-2.16.75-5.07-.33-6.03-2.18-.22-.42-.36-1.05-.21-1.47.42-1.25.85-2.54,1.55-3.64.86-1.36,2.15-1.63,3.45-.65,1.21.91,2.31,2.08,3.17,3.33,1.81,2.63,3.07,5.55,4.22,8.72.13-.48.3-.96.37-1.45.51-3.44,1.08-6.88,2.56-10.06.46-1,.99-2,1.69-2.84,1.14-1.37,2.72-1.43,4.13-.34,2.25,1.73,2.5,4.88.38,7.43-.71-.54-1.45-1.1-2.18-1.66-1.16-.9-1.77-.85-2.45.46-.47.9-.78,1.91-1.02,2.91-.78,3.23-1.48,6.48-2.25,9.72-.55,2.34-1.01,3.17-2.54,4.61-.99-4.59-1.96-9.04-4.84-12.88Z"/>
    <path class="cls-1" d="M533.71,97.6c1.33,3.35,2.85,6.3,3.02,9.7.11,2.17-.57,4.08-1.88,5.77-1.65,2.12-3.35,2.21-5.18.3-.5-.52-.94-1.1-1.54-1.81-.45.81-.79,1.52-1.22,2.17-.87,1.32-2.07,2.11-3.72,1.93-1.62-.17-2.82-1.07-3.28-2.59-.37-1.25-.41-2.6-.55-3.91-.15-1.48.35-3.17-1.56-4.02-.25-.11-.35-.96-.26-1.41.36-1.72,1.24-3.1,3.12-4.13.29.98.62,1.76.74,2.58.13.87.06,1.76.07,2.65,0,.88-.08,1.78.02,2.65.2,1.89,1.32,3.21,2.54,3.14,1.52-.08,3.04-1.8,3.02-3.58-.01-1.32-.23-2.65-.34-3.97-.08-.96-.18-1.91-.19-2.87,0-.83.18-1.61,1.42-1.97.23.79.51,1.52.65,2.28.38,1.96.63,3.94,1.08,5.88.23.98.65,1.97,1.23,2.78.62.86,1.79.93,2.6.42.87-.54.85-1.37.56-2.16-.3-.82-.68-1.64-1.19-2.34-1.61-2.21-1.43-5.13.84-7.49Z"/>
    <path class="cls-1" d="M709.38,170.58c-1.17,1.32-2.28,2.7-3.53,3.94-3.53,3.51-7.75,5.92-12.54,7.23-3.63.99-7.32,1.79-10.98,2.65-.39.09-.83.01-1.35.01.25-1.21,1.23-1.33,1.98-1.65,3.94-1.69,7.94-3.23,11.82-5.04,2.94-1.37,5.76-2.99,8.55-4.65,2.39-1.43,4.1-3.54,5.48-5.98.75-1.32,1.78-2.55,2.92-3.56,1.4-1.24,2.56-1.03,3.87.35,1.34,1.43,1.91,3.15,1.73,5.09-.22,2.33-1.66,3.48-3.95,3-1.28-.27-2.5-.86-3.99-1.39ZM711.13,167.56c1.12.62,1.96,1.49,3.29,1.11.3-1.26-.44-1.88-1.29-2.29-.94-.45-1.46.23-2,1.18Z"/>
    <path class="cls-1" d="M874.46,85.64c.34-1.55.54-3.02.99-4.41.64-1.95,1.38-3.88,2.23-5.75.54-1.2,1.5-2.01,3-1.79,1.25.18,1.95.94,2.34,2.08.47,1.38.37,2.59-1.01,3.62-.78-.57-1.53-1.11-2.32-1.68-1.49.58-1.88,1.9-2.2,3.15-.8,3.07-1.47,6.17-2.23,9.26-.24.97-.58,1.91-.87,2.87-.17.03-.34.06-.51.1-.4-.72-.93-1.4-1.19-2.17-.68-2.03-1.23-4.1-1.87-6.14-.46-1.48-1.03-2.66-3.06-2.41-1.32.17-3.05-1.66-3.24-2.92-.18-1.22,1.05-3.18,2.32-3.76.87-.4,1.67-.15,2.26.4.91.85,1.88,1.74,2.44,2.82,1.11,2.14,1.95,4.42,2.94,6.73Z"/>
    <path class="cls-1" d="M867.49,168.63c.33,1-.49,2.15.89,2.45.94.21,1.84-.31,2.44-1.49.44-.87.82-1.78,1.51-2.59.59,2.29.49,4.48-.43,6.6-.4.92-1.25,1.26-2.18,1.24-1.39-.03-2.78-.16-4.36-.25-.23.26-.57.63-.91,1.02-.98,1.13-2.16,1.56-3.56.9-3.7-1.74-6.94-.61-9.91,1.67-1.98,1.53-3.8,3.28-5.69,4.94-1.98,1.74-4.21,2.99-6.83,3.46-.41.07-.83.05-1.79.11.93-.58,1.39-.93,1.9-1.16,2.79-1.3,5.09-3.22,7.28-5.35,2.22-2.16,4.52-4.23,6.91-6.19,2.46-2.02,5.28-2.61,8.3-1.35,1.54.64,2.72.23,3.75-.94.82-.94,1.64-1.88,2.65-3.04Z"/>
    <path class="cls-1" d="M502.7,127.58c-.09,2.64-.61,5.11-2.25,7.17-1.18,1.49-2.6,1.56-4.05.31-1.59-1.37-1.95-3.25-1.98-5.21-.04-2.83.35-5.62,1.29-8.28.78-2.22,1.74-4.39,2.67-6.56.31-.73.77-1.4,1.52-2.02-.07.5-.09,1.02-.22,1.51-.72,2.71-1.61,5.38-2.16,8.13-.36,1.78-.32,3.66-.34,5.49-.01,1.09.46,2.1,1.59,2.42,1.12.31,1.98-.35,2.66-1.19.45-.56.85-1.17,1.27-1.75Z"/>
    <path class="cls-1" d="M710.26,73.61c-.29.89-.56,1.55-.74,2.24-.77,3-1.67,5.98-2.21,9.02-.27,1.54-.16,3.28.28,4.78.61,2.1,2.03,2.2,3.31.47.59-.81,1.15-1.65,1.92-2.39-.31,2.33-.59,4.66-1.99,6.62-1.65,2.31-4.14,2.08-5.43-.47-1.01-1.99-1.1-4.14-.84-6.28.53-4.37,1.91-8.49,4-12.37.24-.45.57-.86.9-1.26.12-.14.36-.17.8-.37Z"/>
    <path class="cls-1" d="M879.89,107.58c-.16.52-.36,1.04-.48,1.57-.75,3.15-1.6,6.29-2.15,9.47-.22,1.24.03,2.67.45,3.88.55,1.56,1.78,1.65,2.84.37.68-.82,1.26-1.72,2.01-2.5.09,2.33-.52,4.44-1.75,6.31-1.33,2-2.99,2.11-4.51.26-.67-.82-1.25-1.9-1.39-2.93-.21-1.66-.19-3.39.03-5.06.45-3.48,1.81-6.68,3.44-9.76.33-.63.81-1.18,1.22-1.77.1.05.19.1.29.15Z"/>
    <path class="cls-1" d="M489.83,73.96c5.25,2.93,8.2,12.99,5.45,19.35-.28-1.08-.49-1.81-.65-2.54-.3-1.44-.55-2.9-.87-4.33-.56-2.54-1.92-4.59-3.85-6.3-2.48-2.21-2.51-3.42-.08-6.17Z"/>
    <path class="cls-1" d="M460.46,104.88c.18,2.25-.47,4.27-1.72,6.03-1.49,2.1-3.97,1.9-5.16-.4-.43-.83-.69-1.81-.76-2.74-.39-5.8,1.19-11.08,4.41-15.9.16-.24.24-.55.35-.82.17.13.34.25.51.38-.24.58-.48,1.16-.71,1.74-1.35,3.37-2.43,6.82-2.4,10.5,0,.94.12,1.93.43,2.81.59,1.67,1.78,1.92,3.04.71.73-.7,1.34-1.54,2-2.32Z"/>
    <path class="cls-1" d="M787.74,73.82c-.42,1.15-.82,2.31-1.27,3.45-1,2.49-1.66,5.04-1.75,7.73-.02.52-.02,1.04.03,1.55.1.98.31,1.99,1.4,2.29,1.05.3,1.57-.59,2.13-1.26.36-.43.71-.88,1.32-1.63.1,2.44-.31,4.31-1.56,5.92-1.23,1.59-2.89,1.65-4.04,0-.65-.93-1.2-2.12-1.27-3.23-.33-5.08,1.08-9.76,3.63-14.13.22-.38.46-.74.69-1.11.23.14.46.28.69.42Z"/>
    <g>
      <g>
        <path class="cls-1" d="M437.74,277.15c.41-1.02.7-1.82,1.05-2.6,1.13-2.51,2.28-5.01,3.47-7.6.86,0,1.58,0,2.29,0,15.52.1,31.05.21,46.57.3,1.75.01,3.5.04,5.25,0,3.68-.1,6.38-1.86,8.14-5.03,1.09-1.97,1.96-4.06,3.04-6.03,1.39-2.55,2.71-5.16,4.38-7.51,2.03-2.88,4.85-4.81,8.46-5.31,4.11-.58,7.5.73,9.97,4.07.99,1.34,1.8,2.82,2.59,4.28,1.3,2.43,2.49,4.93,3.78,7.37,2.8,5.29,7.12,8.09,13.22,8.04,8.16-.06,16.32-.06,24.49-.11.87,0,1.75-.09,2.61-.25,4.24-.79,6.14-2.83,6.19-7.12.05-4.28-.04-8.58-.29-12.85-.62-10.81-1.36-21.61-2.08-32.41-.07-.99-.06-1.85.77-2.57,2.14-1.86,4.25-3.75,6.39-5.62.13-.12.38-.1.77-.19.03.64.06,1.19.08,1.74.71,16.55,1.41,33.1,2.13,49.65.04.94.22,1.87.39,2.8.66,3.59,2.99,5.55,6.4,6.32,1.34.3,2.74.46,4.12.46,9.91.03,19.83.11,29.74-.07,3.54-.06,7.08-.75,10.61-1.26,1.03-.15,2.01-.65,3.15-1.03-2.4-2.45-4.6-4.74-6.85-6.98-.61-.62-1.34-1.12-2-1.69-1.31-1.13-2.78-1.83-4.54-1.93-.55-.03-1.09-.21-1.87-.37.25-.85.42-1.53.65-2.19.78-2.27,1.61-4.52,2.37-6.79.35-1.04.96-1.69,2.01-2.1,7.12-2.77,14.5-3.81,22.09-3.23,3.04.23,6.09.71,9.04,1.48,2.29.6,4.41,1.82,6.62,2.76,1.55.66,1.82,1.85,1.62,3.39-.55,4.28-2.46,7.9-5.43,10.94-1.98,2.03-4.17,3.84-6.25,5.76-.25.23-.47.5-.83.88,3.33,1.47,6.68,2.09,10.06,2.34,3.12.23,6.26.12,9.39.15.51,0,1.02-.04,1.52-.12,3.52-.58,6.33-2.15,6.04-7.06-.31-5.37-.64-10.73-1-16.1-.62-9.21-1.14-18.42-1.98-27.61-.3-3.29.74-5.63,3.21-7.56,1.23-.97,2.45-1.95,4.06-3.23.12,6.78,2.91,12.06,6.46,17.23-.76.54-1.37,1.04-2.03,1.43-1.52.9-2.1,2.07-2.02,3.94.37,9.29.59,18.59.82,27.89.11,4.4-.45,8.7-2.19,12.79-.26.6-.53,1.19-.78,1.8-2.03,5.06-6.02,7.68-11.21,8.18-9.34.89-18.32-.44-26.47-5.5-.8-.5-1.6-1.01-2.41-1.5-.12-.08-.26-.12-.52-.24-.36.18-.83.37-1.24.63-6.96,4.38-14.61,6.57-22.77,6.71-9.11.17-18.22.04-27.33,0-1.38,0-2.77-.15-4.13-.35-3.97-.58-7.36-2.25-9.84-5.51-.26-.35-.55-.68-.82-1.01-.04-.05-.12-.08-.62-.57-.07.29-.08.61-.21.86-2.58,4.65-6.96,6.17-11.86,6.58-2.68.22-5.39.12-8.09.12-5.61,0-11.23-.12-16.84-.02-4.82.09-8.78-1.72-12.25-4.87-.3-.27-.62-.54-1.05-.92-.45,1.12-.78,2.06-1.19,2.97-1.58,3.51-4.22,5.14-8.04,4.64-6.18-.82-11.78-3.18-16.71-7.02-.8-.62-1.59-1.25-2.47-1.95-.26.28-.48.45-.61.68-2.47,4.36-6.44,6.16-11.23,6.38-2.91.13-5.83.05-8.74.03-6.92-.04-13.85-.1-20.77-.15-.78,0-1.57,0-2.48,0,.13,1.02.27,1.79.33,2.56.52,6.49-1.46,11.93-6.97,15.71-9,6.17-18.86,9.71-29.92,9.35-3.8-.12-7.54-.61-11.1-2.08-8.27-3.41-12.65-9.69-13.72-18.42-.92-7.52,1.42-18.99,5.32-25.9,1.4.07,2.9.14,4.56.21-.69,2.35-1.4,4.55-1.97,6.77-1.18,4.68-1.88,9.4-.73,14.22,1.44,6.02,5.13,9.97,10.93,12.02,4.06,1.43,8.28,1.63,12.52,1.39,7.61-.44,14.82-2.26,21.28-6.48.79-.51,1.56-1.09,2.21-1.76,1.25-1.29,1.25-2.49-.25-3.48-1.5-.98-3.19-1.75-4.91-2.28-2.78-.85-5.65-1.41-8.48-2.1-1.61-.39-3.21-.8-5.01-1.25ZM512.27,261.38c3.81,3.51,8.05,6.2,13.05,7.62.62.18,1.28.26,1.93.3,2.53.17,3.8-1.15,3.54-3.68-.06-.57-.2-1.15-.39-1.69-1.3-3.56-3.5-6.52-6.38-8.94-2.39-2.01-4.87-1.99-7.38-.08-2.08,1.58-3.54,3.62-4.38,6.47ZM665.38,251.35c-7.56-2.79-14.78-3.14-22.29-.69,3.23,2.9,6.24,5.6,9.25,8.3.27.24.59.43.87.66.64.51,1.25.56,1.99.11,3.67-2.26,6.85-5.09,10.18-8.37Z"/>
        <path class="cls-1" d="M830.65,252.61c-.58,1.81-1.04,3.03-1.36,4.29-.38,1.47-.77,2.96-.92,4.47-.34,3.58,1.93,6.21,5.52,6.5,3.77.3,6.82-1.05,8.52-4.47,1.16-2.32,1.95-4.84,2.73-7.33.36-1.16.92-1.9,2.04-2.3,1.49-.53,2.98-1.09,4.83-1.78-.19,1.2-.35,2.03-.45,2.87-.29,2.45-.7,4.89-.8,7.35-.1,2.57,1.17,4.45,3.64,5.38,2.36.89,5.13.31,6.75-1.74,1.01-1.28,1.84-2.83,2.27-4.39.73-2.65,1.18-5.39,1.57-8.12.2-1.4.82-2.24,2.11-2.71,1.35-.49,2.69-1.02,4.29-1.63-.21,2.47-.46,4.63-.57,6.79-.07,1.51-.04,3.04.1,4.55.27,2.89,1.96,4.82,4.55,5.9,1.26.53,2.63.93,3.99,1.05,4.36.39,8.73.47,13.08-.19,4.52-.68,7.35-3.27,8.62-7.59.41-1.39.76-2.81.99-4.24.28-1.81,1.22-3.09,2.83-3.87,1.23-.6,2.5-1.11,4.16-1.85-.13,1.24-.21,2.06-.3,2.89-.22,1.95-.57,3.89-.63,5.85-.15,4.75,2.43,7.9,7.14,8.7,3.68.62,7.4.69,11.11.09,3.36-.54,5.42-2.42,5.88-5.82.33-2.43.32-4.93.18-7.38-.7-12.26-1.52-24.51-2.26-36.77-.3-4.95-.95-3.93,3.01-7.69.95-.9,1.99-1.7,3.02-2.51.39-.3.85-.51,1.58-.93.15,1.25.31,2.28.38,3.32.89,14,1.76,27.99,1.88,42.03.02,2.54.12,5.09.36,7.62.41,4.28,2.88,7.06,7.05,8.14,2.81.72,5.63.73,8.42-.07,2.48-.7,4.03-2.29,4.33-4.89.14-1.22.21-2.47.13-3.69-.86-14.14-1.68-28.29-2.7-42.42-.22-2.99.59-5.24,2.81-7.11,1.26-1.06,2.41-2.29,4.02-2.89.77,2.94,1.27,5.88,2.32,8.6,1.04,2.69,2.65,5.16,4.12,7.93-.78.65-1.63,1.42-2.55,2.1-1.02.76-1.41,1.63-1.34,2.96.41,7.98.75,15.97,1.03,23.96.17,4.72.27,9.47-1.01,14.08-.58,2.08-1.34,4.16-2.33,6.08-1.95,3.79-5.2,6.06-9.36,6.86-4.21.8-8.41.69-12.49-.83-2.38-.89-4.35-2.32-5.83-4.41-.45-.64-.94-1.24-1.5-1.99-.46.68-.79,1.14-1.09,1.63-2.04,3.32-5.08,5.25-8.85,5.77-4.35.59-8.73.5-13.04-.48-3.68-.84-6.8-2.57-8.87-5.85-.11-.18-.29-.31-.58-.63-.5.51-1.03.96-1.45,1.5-2.68,3.39-6.25,5.19-10.47,5.66-4.65.51-9.32.46-13.95-.25-4.03-.62-7.52-2.28-9.83-5.84-.12-.18-.26-.35-.41-.51-.1-.1-.22-.17-.5-.37-.42.65-.83,1.3-1.25,1.94-2.91,4.48-7.64,6.49-12.59,5.41-2.64-.58-4.58-2.13-6.17-4.21-.48-.62-.9-1.29-1.49-2.13-2.82,4.19-6.6,6.36-11.59,6.38-4.92.01-8.81-1.72-11.24-6.32-.51.43-.94.79-1.37,1.15-3.22,2.73-7.01,4.1-11.15,4.57-1.81.2-3.64.29-5.46.3-10.28.04-20.56.03-30.83.06-3.54,0-6.95-.58-10.39-2.18-.18,1.11-.33,2.02-.47,2.93-1.14,7.23-4,13.64-9.11,18.95-1.2,1.25-2.58,2.36-4,3.36-2.23,1.58-4.79,2.09-7.49,1.8-5.23-.57-10-2.51-14.56-5.03-.81-.44-1.21-1-.87-1.94.17-.47.23-.97.38-1.6,1.1,0,2.19-.17,3.22.03,7.92,1.51,14.08-1.59,19.36-7.15,2.42-2.55,4.42-5.39,6.06-8.5.94-1.77,1.25-3.63.45-5.46-1.17-2.65-2.49-5.23-3.81-7.82-.82-1.62-1.81-3.15-2.59-4.79-.29-.6-.48-1.5-.23-2.06,1.38-3.18,3.29-6.08,5.35-9.44.57,1.09.91,1.76,1.27,2.43,1.46,2.76,2.82,5.58,4.41,8.26,2.63,4.44,6.66,6.6,11.8,6.62,8.67.03,17.35.04,26.02-.02,4.3-.03,8.6-.13,12.88-.37,4.4-.24,7.69-2.5,10.03-6.14.98-1.53,1.86-3.13,2.62-4.77.53-1.15,1.29-1.87,2.49-2.22,1.3-.38,2.59-.82,4.42-1.4Z"/>
        <path class="cls-1" d="M715.81,206.06c.11.5.24.83.26,1.17.78,14.37,1.69,28.73,2.25,43.1.23,5.94-.13,11.91-.48,17.85-.27,4.52-2.2,8.41-5.64,11.44-.67.59-1.5.99-2.65,1.73,0-1.21-.05-1.91,0-2.6.85-10.32.36-20.63-.14-30.93-.45-9.22-1.05-18.43-1.6-27.64-.09-1.6-.29-3.19-.32-4.78,0-.68.1-1.55.52-2.01,2.11-2.3,4.33-4.5,6.54-6.7.27-.27.72-.38,1.24-.63Z"/>
      </g>
      <path class="cls-1" d="M431.48,320.38c-1.69,2.26-3.32,4.46-5.04,6.77-3.51-1.86-6.35-4.45-9.68-6.68,2.01-2.82,3.94-5.52,6.05-8.48,3.06,2.23,6.02,4.38,9.13,6.66,1.72-2.32,3.39-4.56,5.2-7.01,3.24,2.45,6.28,4.74,9.47,7.14-2.05,2.73-3.95,5.28-6.04,8.07-3.04-2.17-6.02-4.29-9.09-6.48Z"/>
      <path class="cls-1" d="M831.83,239.03c1.96-2.74,3.77-5.27,5.76-8.06,2.98,2.09,5.86,4.12,8.93,6.27,2.01-2.09,3.22-4.87,5.39-7.19,2.92,2.21,5.79,4.37,8.84,6.67-1.65,3.04-3.62,5.77-5.64,8.69-3-2.22-5.85-4.32-8.78-6.48-1.69,2.38-3.27,4.62-4.98,7.04-3.35-2.06-6.28-4.48-9.52-6.94Z"/>
      <path class="cls-1" d="M905.52,244.53c-3.53-2.3-6.8-4.43-10.26-6.68,1.94-3.07,3.75-5.93,5.72-9.05,3.42,2.21,6.68,4.33,10.09,6.54-1.85,3.07-3.61,5.97-5.56,9.2Z"/>
      <path class="cls-1" d="M846.34,231.99c-1.95-1.31-3.53-2.34-5.07-3.42-1.3-.92-2.54-1.91-4.06-3.06,1.67-2.65,3.3-5.24,5.09-8.06,3.29,2.28,6.31,4.37,9.53,6.6-1.87,2.7-3.62,5.24-5.49,7.94Z"/>
    </g>
    <g>
      <path class="cls-1" d="M887.34,136.97c.05.55.19,1.07.11,1.55-.14.78-.41,1.54-.68,2.3-.67,1.9-.04,3.44,1.35,4.71,1.69,1.54,3.7,2.3,6.01,2.06.96-.1,1.86-.36,2.55-1.46-.32-.59-.75-1.24-1.03-1.96-.28-.71-.6-1.49-.58-2.22.05-1.46,1.86-5.95,2.86-7.52.98.64,1.3,1.69,1.69,2.67,1.36,3.39,1.14,6.84.29,10.29-.35,1.41-.71,2.83-1.25,4.17-2.2,5.49-9.56,6.95-13.76,2.74-.77-.77-1.41-1.65-2.17-2.54-1,.37-1.26,1.35-1.71,2.11-2.75,4.7-8.1,6.11-12.92,5.15-2.87-.57-4.79-2.34-5.79-5.09-.32-.89-.59-1.79-.91-2.78-1.01.14-1.44.94-1.98,1.55-1.73,1.98-3.5,3.9-5.79,5.27-4.04,2.42-8.31,2.5-12.64,1.09-1.8-.58-2.99-2.03-3.82-3.72-.38-.77-.68-1.58-1.17-2.75-.59.92-.99,1.63-1.48,2.28-1.08,1.45-2.05,3.02-3.35,4.26-2.01,1.92-4.58,2.47-7.31,2.06-2.92-.44-4.97-1.95-5.78-4.9-.18-.68-.41-1.34-.69-2.26-.45.52-.75.88-1.06,1.23-1.31,1.55-2.5,3.24-3.97,4.62-3.2,3.01-7.05,3.23-11.03,1.97-2-.63-3.25-2.2-3.85-4.17-.42-1.38-.65-2.82-1.03-4.53-.5.47-.93.88-1.36,1.28-1.96,1.83-3.77,3.88-5.92,5.46-6.77,4.96-16.49,3.29-21.3-3.56-1.08-1.54-1.86-3.28-2.81-4.91-.62-1.06-1.21-2.17-1.97-3.13-1.11-1.39-2.09-1.62-3.64-.74-1.18.68-2.33,1.53-3.24,2.53-2.8,3.09-5.11,6.53-6.69,10.41-.93,2.29-1.69,4.66-2.75,6.88-.93,1.95-1.97,3.92-3.34,5.56-2.14,2.56-5.12,2.71-7.8.72-2.23-1.65-3.63-3.95-4.78-6.41-1.57-3.33-2.28-6.89-2.53-10.54-.34-4.88-.13-9.74,1.09-14.5.24-.94.37-2,1.36-2.56.98.63.54,1.49.53,2.23-.05,4.14-.24,8.28-.13,12.41.08,3.07.87,6.04,2.38,8.76.79,1.43,1.83,2.63,3.29,3.41,1.8.96,3.66.85,4.98-.7,1.16-1.35,2.12-2.95,2.87-4.57,1.31-2.83,2.19-5.87,3.63-8.63,1.68-3.21,3.58-6.33,5.74-9.23,1.27-1.69,3.09-3.1,4.92-4.22,3.19-1.95,5.56-1.34,7.71,1.67.8,1.12,1.44,2.35,2.12,3.55.61,1.07,1.16,2.18,1.8,3.24,4.3,7.16,12.44,7.23,17.17,4.48,2.37-1.38,4.48-3.21,6.64-4.92,1.19-.95,2.22-2.1,3.37-3.11.48-.43,1.03-.85,1.63-1.06,1.19-.43,2.01.33,1.78,1.58-.06.35-.22.69-.33,1.04-1.28,4.04.99,7.47,5.25,7.92,2.84.3,5.42-.45,7.43-2.45,1.64-1.63,3.01-3.53,4.49-5.32.69-.84,1.28-1.79,2.07-2.52.4-.37,1.22-.64,1.7-.48.81.26.48,1.03.32,1.68-.23.97-.63,1.99-.52,2.94.47,4.01,4.5,5.95,8.25,4.05,1.68-.85,2.86-2.23,3.86-3.77.79-1.22,1.48-2.5,2.22-3.75.26-.44.52-.88.85-1.27.5-.59.96-1.43,1.94-1.01.89.39.65,1.23.49,1.91-.82,3.3,1.96,6.89,6.51,7.46,4.59.57,8.47-1.03,11.74-4.15,1.84-1.76,3.52-3.68,5.29-5.51.5-.52,1.01-1.08,1.61-1.45.37-.23,1.06-.35,1.37-.16.3.18.38.84.41,1.3.02.34-.19.69-.32,1.03-1.21,3.08.51,6.16,3.52,7.47,3.83,1.66,8.52.31,10.81-3.19,1.59-2.43,3.02-4.97,4.57-7.43.53-.83,1.03-1.79,2.54-1.92Z"/>
      <path class="cls-1" d="M532.33,153.7c-.38,1.08-.67,1.96-1,2.83-2.89,7.77-11.04,8.24-15.7,5.69-2.15-1.18-3.43-3.09-4.03-5.45-.23-.9-.41-1.81-.72-3.23-.65.86-1.07,1.39-1.45,1.93-2.61,3.65-5.61,6.87-9.66,8.97-5.81,3.01-12.36,1.75-16.63-3.21-2.45-2.85-3.75-6.19-4.34-9.84-1.31-8.12-1.64-16.33-2.17-24.52-.56-8.55-1.06-17.11-1.8-25.65-.31-3.6-1.13-7.17-1.83-10.73-.26-1.33-.81-2.61-1.31-4.19-.78.72-1.33,1.24-1.89,1.76-1.04-2.37,1.74-10.07,4.44-12.24,1.02.5,1.25,1.53,1.59,2.46,1.8,4.87,2.92,9.92,3.37,15.06.88,10.06,1.48,20.14,2.23,30.21.54,7.24,1.12,14.48,1.76,21.72.23,2.65,1.17,5.09,2.83,7.21,2,2.57,4.61,3.94,7.87,4.06,4.05.16,7.69-1.04,10.6-3.82,2.46-2.36,4.67-4.98,6.93-7.54.82-.93,1.57-1.77,3.17-.98,0,.59.03,1.28,0,1.98-.26,5.6,2.66,8.61,8.3,8.39,1.36-.05,2.79-.28,4.03-.8,1.99-.84,3.71-2.57,3.23-5.34-.66-3.86-1.1-7.8-2.25-11.52-1.4-4.49.19-8.25,1.91-12.1.05-.11.24-.15.63-.38.29.73.64,1.41.83,2.12,1.34,5.05,2.64,10.12,3.98,15.17.54,2.03,1.03,4.1,1.78,6.06,2.85,7.47,11.6,8.88,17.14,2.75.56-.61.82-1.72.79-2.59-.09-2.97-.28-5.95-.59-8.91-1.35-13.15-2.75-26.3-4.12-39.45-.35-3.4-.61-6.8-1-10.19-.18-1.57-.59-3.11-.88-4.67-.09-.49-.25-1.01-.16-1.48.56-3,1.51-5.87,2.95-8.62,1.47,1.21,7.2,13.52,8.19,17.47.2.81.58,1.67-.28,2.65-1.13-.94-2.21-1.85-3.61-3.01,0,.87-.05,1.46,0,2.04,1.05,10.04,2.13,20.08,3.18,30.12.66,6.29,1.24,12.58,1.05,18.92-.13,4.4-1.07,8.59-2.72,12.7-3.47,8.63-15.94,10.65-22.02,2.39-.93-1.27-1.68-2.68-2.62-4.21Z"/>
      <path class="cls-1" d="M929.93,153.95c-1.24.14-2.09.2-2.93.33-3.4.52-6.79.69-10.22.09-5.21-.92-7.77-4.25-6.95-9.46.67-4.24,2.72-7.81,5.94-10.64,2.75-2.42,6.29-2.48,9.24-.31,2.45,1.81,4.16,4.24,5.61,6.88.56,1.01,1.08,2.04,1.7,3.23,4.33-.91,8.39-2.12,11.13-5.85.86-1.17,1.61-2.42,2.3-3.7,1.89-3.47,4.27-6.58,7.08-9.35.16-.15.31-.31.47-.45,4.72-4.29,9.52-3.52,12.47,2.14,3.04,5.83,3.19,11.84.49,17.85-1.28,2.84-2.44,3.4-5.54,2.91-5.24-.83-9.87-2.96-13.81-6.53-.15-.14-.33-.24-.65-.46-1.45,2.79-2.61,5.69-4.92,7.88-2.26,2.15-4.86,3.68-7.77,4.56-.59,2.26-1.1,4.44-1.74,6.58-.96,3.18-2.63,5.98-4.83,8.45-5.1,5.73-10.8,10.79-17.25,14.98-3.56,2.32-7.35,4.18-11.65,4.69-4.49.54-8.74-.03-12.33-3.09-3.04-2.6-4.45-6.07-4.96-9.91-.83-6.17.18-12.16,2.06-18.03.13-.41.32-.81.54-1.19.1-.16.33-.25.51-.37.98.57.54,1.36.43,2.11-.38,2.73-.84,5.45-1.07,8.19-.19,2.33.29,4.61,1.16,6.82,1.35,3.42,3.91,5.34,7.4,6.12,5.27,1.17,10.16-.18,14.72-2.69,7.52-4.13,14.18-9.41,19.95-15.75,1.02-1.12,1.81-2.45,2.61-3.74.35-.57.45-1.29.78-2.28ZM952.22,133.28c1.31,2.36,6.9,5.38,9.77,5.2-.26-2.15-1.05-4.06-2.45-5.68-2.42-2.82-5.16-2.62-7.33.48ZM915.13,143.61c1.63,2.02,5.54,2.75,9.05,1.63-.89-1.38-2.02-2.45-3.35-3.33-2.53-1.68-4.23-1.17-5.7,1.7Z"/>
      <path class="cls-1" d="M669.97,149.78c-3.08,8.82-9.9,14.11-16.76,19.3-3.61,2.72-7.5,5.03-11.88,6.37-2.53.78-5.11,1.16-7.76.92-4.02-.37-6.53-2.63-7.77-6.34-1-3.01-1.34-6.17-.73-9.26.8-4.12,1.95-8.18,3-12.26.26-1,.35-.97,1.38-1.85.6.75.23,1.53.09,2.26-.56,3-1.17,5.99-1.73,8.98-.13.71-.2,1.45-.17,2.17.19,4.58,2.67,7.05,7.25,7.36,2.77.19,5.37-.44,7.86-1.54,8.74-3.86,16.12-9.56,22.39-16.72.19-.22.35-.47.54-.69,2.1-2.36,2.5-4.94,1.83-8.07-1.87-8.73-4.97-17-8.84-25-.77-1.59-1.14-3.11-.82-4.81.36-1.92.71-3.85,1.11-5.77.08-.4.33-.77.64-1.47.63.82,1.12,1.41,1.54,2.05,4.85,7.2,8.14,15.09,10.1,23.51,1.18,5.09,1.96,10.27,3.08,15.38.51,2.33,1.19,4.66,2.13,6.84,1.5,3.47,4.3,5.25,8.15,5.08,4.9-.22,8.9-2.09,11.31-6.59.58-1.09,1.21-2.18,1.6-3.34,1.53-4.51,4.45-8.13,7.47-11.69.61-.71,1.33-1.36,2.09-1.91,3.4-2.43,7.44-1.81,9.73,1.71,3.7,5.7,4.51,11.86,2.33,18.34-.11.34-.29.67-.45.99-1.33,2.65-2.7,3.38-5.62,3.02-4.95-.61-8.88-2.34-13.73-6.11-.23.44-.43.85-.65,1.26-1.4,2.7-2.56,5.58-4.27,8.07-2.39,3.47-5.67,5.81-10.19,5.86-4.66.05-8.21-1.97-10.44-5.95-1.26-2.26-2.02-4.8-2.95-7.24-.36-.93-.57-1.92-.85-2.88ZM714.04,147.78c-.23-2.98-1.32-5.02-3.24-6.59-2.23-1.83-4.8-1.24-6.37,1.53,2.45,2.79,5.76,3.99,9.61,5.06Z"/>
      <path class="cls-1" d="M406.83,142.41c-.29,1.25-.55,2.51-.88,3.75-1.12,4.1-1.77,8.21-1.12,12.48,1.23,8.16,7.42,14.48,15.58,15.82,6.2,1.02,12.21.14,18.04-1.96,8.65-3.11,16.54-7.53,23.46-13.62,3.19-2.81,3.3-3.14,1.78-7.05-.77-1.96-1.74-3.84-2.49-5.8-1.52-4-3.09-7.99-4.38-12.07-.99-3.11-.28-6.11,1.59-9.18,3.7,2.78,6.2,6.31,9.09,9.53-1.07,1.26-2.28.13-3.33.71-.66.62-.28,1.37.07,2.09.69,1.44,1.45,2.85,2.11,4.3,2.56,5.58,2.85,11.35,1.37,17.24-.8,3.18-2.38,5.92-4.81,8.14-7.79,7.12-16.64,12.42-26.77,15.52-4.29,1.31-8.65,2.05-13.14,1.74-8.06-.56-14.63-3.75-18.69-11.01-1.76-3.15-2.56-6.64-2.87-10.21-.5-5.73.33-11.3,2.37-16.68.56-1.47,1.19-2.91,2.41-3.96.21.07.42.15.63.22Z"/>
      <path class="cls-1" d="M610.43,121.31c3.36,3.02,7.73,8.24,8.26,9.94h-3.06c.78,1.65,1.35,3.06,2.09,4.37,3.69,6.54,3.64,13.35,1.34,20.23-1.08,3.25-3.53,5.65-6.1,7.83-7.99,6.79-16.98,12-26.4,16.51-.71.34-1.48.63-2.26.77-6.16,1.11-12.33,2.2-18.5,3.26-2.27.39-4.56.69-7.27,1.09.37-.77.45-1.24.71-1.41.74-.45,1.56-.79,2.35-1.15,8.41-3.85,16.89-7.54,25.2-11.58,8.46-4.1,16.52-8.95,24.06-14.59,1.91-1.43,3.57-3.2,5.36-4.79.96-.85,1.09-1.84.6-2.95-.73-1.66-1.48-3.31-2.22-4.97-1.5-3.38-3-6.77-4.49-10.15-.18-.4-.24-.89-.52-1.19-1.49-1.58-1.38-3.38-.96-5.31.43-1.96.65-3.98,1.8-5.93Z"/>
      <path class="cls-1" d="M570.83,75.26c3.21,4.14,8.67,18.27,8.05,20.94-1.66-.33-2.32-2.04-3.91-2.93,0,.95-.06,1.64,0,2.32.79,7.8,1.65,15.6,2.41,23.4.8,8.17,1.68,16.33,2.2,24.51.43,6.79-.34,13.5-2.86,19.9-.35.89-.47,2.02-1.81,2.44-.1-.45-.28-.84-.26-1.21.74-12.91-1.01-25.65-2.39-38.43-1.3-11.98-2.29-24-3.47-35.99-.15-1.49-.62-2.96-.92-4.44-.13-.62-.42-1.33-.26-1.88.78-2.64,1.69-5.24,2.58-7.85.08-.25.34-.44.63-.78Z"/>
      <path class="cls-1" d="M633.79,160.36c-.1-1.03-.18-1.46-.18-1.88.1-7.71-.66-15.37-1.44-23.03-1.18-11.63-2.44-23.25-3.63-34.88-.38-3.68-.6-7.38-.99-11.06-.11-1.06-.41-2.14-.87-3.1-.54-1.12-.74-2.16-.36-3.34.69-2.14,1.35-4.29,2.06-6.43.18-.53.5-1.01.77-1.54,2.31,2.08,8.66,17.8,8.45,21.06-1.72-.26-2.18-2.3-4-2.74.22,2.21.4,4.27.62,6.32,1.19,10.97,2.47,21.93,3.54,32.92.77,7.84.76,15.67-1.57,23.32-.32,1.04-.67,2.08-1.1,3.07-.17.38-.62.64-1.3,1.31Z"/>
      <path class="cls-1" d="M745.67,108.02c2.87,1.85,5.43,3.5,8.19,5.28,1.04-2.02,1.99-3.86,2.97-5.77,1.82.4,3.03,1.61,4.43,2.46,1.42.87,2.77,1.86,4.38,2.96-1.24,2.58-2.66,4.97-4.37,7.54-2.6-1.6-5.1-3.14-7.88-4.85-1.08,1.86-2.11,3.64-3.2,5.52-2.99-1.66-5.82-3.27-8.51-5.61,1.31-2.47,2.59-4.88,3.99-7.53Z"/>
      <path class="cls-1" d="M506.8,178.46c1.15-1.91,2.18-3.63,3.33-5.55,3.08,1.4,5.57,3.35,8.08,5.18-.59,2.46-2.36,5.69-4.19,7.65-2.35-1.54-4.75-3.1-7.24-4.73-1.16,1.84-2.2,3.48-3.36,5.32-3.13-1.4-5.58-3.52-8.36-5.44,1.4-2.51,2.7-4.83,4.11-7.35,2.85,1.18,4.97,3.2,7.63,4.92Z"/>
      <path class="cls-1" d="M907.56,127.33c-.47-2.26.22-3.66,1.96-4.64.74-.42,1.38-1.02,2.22-1.66-.59-.29-.97-.48-1.35-.66-2.46-1.16-3.52-3.31-2.75-5.9.31-1.02.79-2.08,1.47-2.89,1.36-1.6,2.83-3.14,4.43-4.5.78-.67,1.92-1.09,2.95-1.27,2.06-.35,3.58,1.27,3.14,3.31-.25,1.17-.82,2.27-1.31,3.57-1-.54-1.73-.98-2.5-1.34-1.06-.5-2.11-.51-3.1.21-1.54,1.13-1.58,2.35-.06,3.52,1.66,1.27,3.49,1.81,5.52.93,1.53-.67,3.04-1.39,4.54-2.11.7-.33,1.39-.71,2.26-1.16.48,2.37.05,4.21-1.85,5.5-1.26.85-2.61,1.59-3.93,2.36-2.95,1.72-5.9,3.43-8.85,5.14-.87.5-1.75.99-2.79,1.58Z"/>
      <path class="cls-1" d="M528.23,180.49c1.2-2.22,2.3-4.25,3.41-6.28.51-.93,1.28-.84,2.07-.44,2.46,1.26,4.7,2.85,6.9,4.73-1.08,2.73-2.48,5.13-4.34,7.6-2.73-1.91-5.33-3.72-8.04-5.61Z"/>
    </g>
  </g>
  <g>
    <path class="cls-1" d="M195.08,127.1c.32,8.81,2.85,16.89,7.01,24.64-7.34-24.93.65-45.17,18.56-62.32-.47,7.46-.94,15.01-1.42,22.56.32.05.64.1.96.16,2.06-13.66,3.89-27.45,15.64-36.88,4.13-3.32,8.46-6.39,12.7-9.58.18.19.36.39.54.58-1.02,2.75-2.03,5.5-3.05,8.26.27.2.55.4.82.6.11-.34.19-.7.34-1.03,3.73-8.62,10.66-13.76,18.75-17.96,12.7-6.59,26.22-9.94,40.34-11.31,1.1-.11,2.19-.22,3.28-.33.04,0,.09.09.21.23-2.28,1.76-4.64,3.41-6.81,5.28-6.61,5.68-10.99,13.02-14.78,20.68-2.79,5.64-4.97,11.59-7.61,17.31-.68,1.48-1.8,3.14-3.17,3.86-4.8,2.55-9.79,4.72-14.71,7.04-.42.2-.83.39-1.25.58.09.23.18.46.27.69,5.58-2.25,11.16-4.5,17.15-6.92-7.16,18.5-21.53,29.06-38.39,37.17,8.01-1.36,15.21-4.58,22.47-8.22-.04.5,0,.82-.11,1.08-3.29,7.85-6.57,15.71-9.9,23.54-2.32,5.44-6.14,9.84-10.76,13.27-7.14,5.31-14.69,10.08-22.07,15.08-.58.39-1.19.73-1.78,1.09.09.21.17.42.26.64,5.08-1.89,10.31-3.45,15.19-5.78,4.85-2.31,9.33-5.39,13.7-7.97-6.21,14.02-17.28,24.26-30.24,32.84,6.36-.71,12.25-2.48,17.4-6.31.14.15.28.31.42.46-.45.53-.86,1.1-1.36,1.58-5.3,5.11-10.69,10.17-17.54,13.14-5.26,2.28-7.84,6.04-7.8,11.72.01,1.66-.38,3.34-.2,4.96.13,1.21,1.02,2.32,1.33,3.54.37,1.42,1.16,3.26.61,4.32-5.24,10.11-6.58,20.99-6.86,32.12,0,.22-.12.43-.32,1.16-2.68-5.88-5.13-11.38-5.99-17.4-1.6-11.21-2.34-22.48-1.9-33.81.07-1.81-.94-2.74-2.17-3.64-6.46-4.71-10.46-11.2-13.32-18.56,3.51,3.29,6.53,7.19,11.72,9.07-4.07-7.12-7.84-13.94-9.46-21.67-.58-2.77-1.04-5.56-1.27-8.46,3.06,6.05,5.69,12.3,10.56,17.31-7.33-20.12-4.69-39.49,4.01-58.45ZM266.77,72.15c-29.36,26.11-48.48,58.65-59.47,96.09-7.23,24.63-9.43,49.76-5.64,75.29.58-2.83.94-5.69.99-8.55.27-15.44,2.08-30.73,4.49-45.95,2.68-16.84,8.02-32.92,14.8-48.51,8.04-18.47,18.18-35.75,30.73-51.54,4.55-5.73,9.4-11.23,14.11-16.84Z"/>
    <g>
      <path class="cls-1" d="M332.65,227.42c-6.02-10.82-11.83-21.27-17.66-31.71-3.57-6.41-7.12-12.82-10.74-19.2-1.86-3.28-3.54-6.69-6.9-8.87-1.11-.72-1.81-2.08-3.11-3.65,5.25,0,9.86-.07,14.47.07.74.02,1.71.86,2.15,1.59,8.54,14.09,17.03,28.21,25.48,42.36,6.02,10.08,11.96,20.2,17.94,30.31.23.39.43.81.79,1.49-53-7.55-100.82,3.7-142.82,37.24,15.28-16.69,33.26-29.34,54.45-37.49,21.1-8.12,42.99-11.56,65.94-12.13Z"/>
      <path class="cls-1" d="M75.49,227.5c46.66.83,88.01,14.22,120.37,49.43-41.87-33.84-89.92-44-142.64-37.18,1.91-3.23,3.72-6.34,5.57-9.44,7.25-12.13,14.47-24.27,21.78-36.36,5.83-9.65,11.78-19.23,17.71-28.82.25-.4.83-.81,1.28-.84,4.69-.28,9.39-.48,14.09-.71.08.24.17.48.25.72-.95,1.08-1.75,2.36-2.88,3.19-4.38,3.22-6.49,8.03-9.03,12.52-7.65,13.52-15.21,27.09-22.79,40.64-1.26,2.24-2.46,4.52-3.72,6.84Z"/>
      <path class="cls-1" d="M200.6,275.93c-28.11-36.41-66.68-51.84-111.45-55.59,1.86-3.44,3.66-6.72,5.43-10.02,4.54-8.48,9.08-16.96,13.61-25.44,6.06-11.35,12.14-22.69,18.13-34.07.71-1.35,1.5-1.8,2.97-1.56,14.84,2.37,27.74,8.76,38.9,18.76.04.03.01.14.03.53-1.56-.84-2.96-1.67-4.41-2.37-8.39-4.02-17.1-6.95-26.42-7.92-1.72-.18-2.76.2-3.55,1.83-4.01,8.23-8.16,16.38-12.16,24.62-4.4,9.07-8.67,18.2-12.97,27.25,39.56,8.74,71.9,27.55,91.9,64Z"/>
      <path class="cls-1" d="M255.54,161.39c.88-1.81,1.83-3.87,2.88-5.88.22-.42.75-.82,1.22-.96,6.06-1.77,12.13-3.49,18.19-5.23,2.2-.63,3.47-.04,4.64,2.19,8.28,15.87,16.77,31.63,25.15,47.44,3.71,7,7.3,14.07,11.13,21.47-2.94.29-5.56.55-8.19.79-10.7.99-21.24,2.94-31.4,6.42-8.4,2.88-16.79,5.93-24.84,9.66-9.6,4.45-18.59,10.21-26.44,17.3-6.46,5.84-11.97,12.72-17.9,19.15-.47.51-.88,1.08-1.54,1.44,9.15-17.16,21.8-31.11,38.19-41.71,16.27-10.53,34-17.36,53.25-21.56-2.84-5.88-5.67-11.72-8.49-17.57-5.56-11.51-11.13-23.02-16.63-34.56-.73-1.53-1.55-2.13-3.3-1.73-5.29,1.18-10.61,2.22-15.93,3.31Z"/>
      <path class="cls-1" d="M332.29,249.27c-.5-1.47-.81-2.52-1.21-3.53-.4-1.01-.89-1.99-1.56-3.47,2.07.13,3.81.21,5.55.36,1.81.15,3.63.57,5.42.48,2.67-.14,4.13,1.21,5.4,3.32,3.56,5.87,7.24,11.66,10.86,17.48.2.32.37.65.92,1.62-53.63-14.06-103.92-7.94-151.01,21.41,5.84-7.73,33.12-25.98,58.27-32.87,22.02-6.03,44.3-8.49,67.34-4.8Z"/>
      <path class="cls-1" d="M51.1,264.72c3.94-6.36,7.9-12.71,11.81-19.09.93-1.52,2.02-2.3,3.95-2.34,3.76-.08,7.5-.53,11.57-.84-1.27,2.54-2.35,4.69-3.44,6.87,47.57-6.32,89.56,6.01,126.1,36.92-22.42-13.45-46.14-23.2-72.36-26.35-26.15-3.15-51.87-1.07-77.34,5.45-.1-.2-.2-.4-.3-.6Z"/>
    </g>
    <g>
      <path class="cls-1" d="M352.47,194.49c-.52,8.42-1.05,16.85-1.61,25.92-2.71-4.22-5.07-7.81-7.29-11.48-.3-.49-.17-1.55.17-2.08,2.64-4.19,5.38-8.32,8.09-12.47.21.04.43.08.64.12Z"/>
      <path class="cls-1" d="M54.32,202.32c.52,8.42,1.05,16.85,1.61,25.92,2.71-4.22,5.07-7.81,7.29-11.48.3-.49.17-1.55-.17-2.08-2.64-4.19-5.38-8.32-8.09-12.47-.21.04-.43.08-.64.12Z"/>
      <path class="cls-1" d="M289.86,265.07c-4.84,4.39-9.07,8.61-13.7,12.34-9.15,7.37-18.34,14.73-27.86,21.62-9.12,6.59-18.53,12.82-28.11,18.73-6.63,4.09-13.61,7.71-20.71,10.93-9.84,4.45-19.8,8.72-29.96,12.36-15,5.36-30.44,9.07-46.48,9.53-11.63.33-23.07-.82-33.86-5.58-16.69-7.37-26.81-20.09-30.23-37.98-2.37-12.41-1.56-24.7,2.31-36.76.12-.38.46-.69,1.2-.92-.08,1.1-.13,2.2-.25,3.3-1.06,9.53-.62,18.96,2.44,28.1,3.82,11.39,10.96,20.02,21.66,25.78,13.6,7.33,28.19,8.16,43.08,7,14.12-1.1,27.62-5.01,40.85-9.88,19.56-7.2,38.07-16.53,55.41-28.07,9.71-6.47,18.99-13.57,28.43-20.44,2.35-1.71,4.39-3.94,6.91-5.3,2.29-1.23,5-1.89,7.6-2.3,6.55-1.02,13.15-1.75,19.73-2.59.28-.04.57.04,1.55.12Z"/>
      <path class="cls-1" d="M75.48,182.81c-1.98-3.38-4.1-6.68-5.91-10.15-2.04-3.91-3.93-7.91-5.63-11.99-.55-1.33-.74-3.12-.34-4.48,5.35-18.2,13.75-34.86,24.95-50.21,10.05-13.76,22.13-25.41,36.15-34.87,7.81-5.27,16.39-9.48,24.93-13.52,11.64-5.5,24.09-8.47,36.85-10.16,21.56-2.85,42.55-.15,63.15,6.4.73.23,1.43.59,2.58,1.07-3.13,1.92-5.94,3.6-8.71,5.33-1.47.92-2.83,2-4.34,2.84-.59.33-1.46.35-2.16.23-10.87-1.78-21.79-2.78-32.81-2.36-10.45.4-20.62,2.3-30.75,4.97-14.73,3.88-28.03,10.68-40.32,19.33-10.87,7.65-20.45,16.81-28.45,27.59-8.39,11.3-14.98,23.54-20.03,36.61-3.73,9.65-6.5,19.59-7.81,29.9-.14,1.07-.36,2.13-.55,3.19-.27.08-.53.17-.8.25Z"/>
      <path class="cls-1" d="M64.53,208.62c-3.9-5.79-7.9-11.46-11.61-17.31-7.98-12.57-14.48-25.91-18.94-40.12-4.92-15.67-6.77-31.66-2.92-47.89,3.13-13.19,10.96-23.03,22.19-30.4,11.18-7.33,23.64-10.35,36.74-11.22,10.46-.69,20.85.06,31.15,2.04.82.16,1.63.42,2.44.64.03.26.06.52.1.79-1.51.35-3.07,1.14-4.53.99-12.65-1.35-25.15-.98-37.17,3.54-12.52,4.71-23.2,11.81-29.23,24.38-5.1,10.63-5.91,21.91-4.49,33.36,2.03,16.42,7.55,31.72,15.68,46.1,3.3,5.83,6.72,11.59,10.02,17.42.31.55.4,1.56.1,2.09-2.83,5.02-5.76,9.98-8.67,14.95-.11.18-.36.28-.86.66Z"/>
      <path class="cls-1" d="M339.88,202.51c-1.88-3.05-3.65-5.92-5.42-8.79-1.16-1.88-2.08-3.96-3.52-5.61-1.83-2.1-1.29-3.68.02-5.75,8.67-13.69,15.31-28.3,19.4-44.01,2.48-9.56,3.51-19.33,2.1-29.14-2.08-14.47-8.74-26.16-21.44-34.11-8.99-5.62-18.73-8.59-29.22-9.35-.6-.04-1.19-.14-2.21-.26,1.93-2.28,3.35-4.17,6.49-4.11,12.07.25,23.89,2.04,34.81,7.18,15.65,7.37,26.13,19.3,29.67,36.68,2.43,11.94,1.36,23.7-1.55,35.41-3.27,13.17-8.24,25.68-14.74,37.55-4.46,8.15-9.45,16.01-14.39,24.3Z"/>
      <path class="cls-1" d="M201.33,334.09c4.41-2.3,8.38-4.37,12.36-6.43.21-.11.49-.13.65-.27,3.92-3.5,7.82-2.61,12.27-.69,12.9,5.56,26.47,8.97,40.32,11.05,14.85,2.22,29.69,2.1,44.09-2.74,14.83-4.98,25.36-14.71,30.99-29.48,3.88-10.19,3.51-20.76,2.72-31.35-.11-1.47-.24-2.94-.37-4.41.21-.06.41-.11.62-.17.4,1.2.91,2.38,1.19,3.61,2.79,12.13,3.69,24.35,1.64,36.7-2.39,14.36-9.97,25.34-21.7,33.69-10.81,7.7-23.14,10.54-36.09,11.56-13.79,1.09-27.29-.75-40.65-3.92-16.1-3.82-31.58-9.48-46.62-16.34-.34-.15-.65-.36-1.43-.79Z"/>
      <path class="cls-1" d="M337.85,267.29c-.21,2.6-.7,4.73-.51,6.81.81,8.7,1.24,17.3-1.55,25.81-4.15,12.64-12.09,21.8-24.22,27.28-6.69,3.02-13.7,4.75-21.02,5.26-.62.04-1.24,0-1.98-.5.74-.19,1.47-.41,2.22-.57,6.67-1.42,13.19-3.28,19.12-6.77,11.55-6.8,18.25-16.94,20.17-30.15.61-4.22.58-8.54.85-12.82-.2,0-.39-.02-.59-.02-3.03,4.36-5.97,8.79-9.11,13.07-9.87,13.46-21.32,25.3-35.1,34.86-3.5,2.42-6.79,3.85-11.1,2.94-2.98-.63-6.1-.63-9.87-.98,14.34-7.13,26.41-16.19,37.15-27.06-2.14,1.73-4.31,3.44-6.41,5.21-10.24,8.64-21.74,15.24-34.2,19.96-2.7,1.02-6.33-.39-9.53-.67,0-.24.02-.48.02-.72.25-.16.48-.4.76-.48,22.56-6.78,41.02-19.8,56.69-37.11,6.37-7.03,11.9-14.67,16.67-22.86.89-1.53,1.84-2.15,3.58-1.83,2.86.54,5.74.96,7.97,1.32Z"/>
      <path class="cls-1" d="M289.07,89.7c8.24,5.24,15.06,11.87,21.7,18.72.25-.26.5-.51.75-.77-4.29-4.02-8.55-8.08-12.87-12.05-2.49-2.29-5.07-4.48-7.65-6.68-1.23-1.05-1.9-2-1.06-3.79,1.12-2.4,1.8-5,2.79-7.86,10.06,8.35,18.95,17.22,26.76,27.21,7.82,10,13.72,21.15,19.94,32.96.35-2.75.74-4.78.86-6.82.56-9.9,0-19.6-5.31-28.41-4.94-8.19-12.17-13.44-21.09-16.58-2.95-1.04-5.88-2.05-8.12-4.55-1.96-2.19-4.35-4-6.55-5.98.07-.19.15-.38.22-.58,2.38.29,4.77.48,7.12.9,7.64,1.37,14.73,4.18,21.1,8.63,8.94,6.24,13.58,15.1,15.46,25.64,1.75,9.81.14,19.35-2,28.87-.2.91-.52,1.97-.25,2.78,1.17,3.53-.08,6.69-1.28,9.86-.94,2.48-2.02,4.91-3.08,7.47-3.02-6.37-5.77-12.53-8.83-18.54-6.62-12.99-15.24-24.52-26.05-34.35-3.85-3.5-7.85-6.85-11.87-10.17-2.91-2.4-2.97-2.33-.67-5.91Z"/>
      <path class="cls-1" d="M147.42,324.7c-8.7,1.65-16.76,3.56-24.99,2.87-2.37-.2-4.92-2.15-6.79-3.93-7.99-7.6-16.09-15.14-23.52-23.28-6.97-7.64-12.57-16.38-17.29-25.63-1.21-2.37-2.64-4.63-4.18-7.31,4.96-.67,9.68-1.34,14.41-1.93,4.83-.6,4.72-.5,7.24,3.83,5.82,10.03,12.38,19.52,20.27,28.09,7.53,8.18,16.09,15.11,25.15,21.46,2.89,2.02,6.04,3.65,9.7,5.83Z"/>
      <path class="cls-1" d="M188.25,309.82c-6.04,2.64-11.44,5.05-16.89,7.33-.73.31-1.96.23-2.61-.2-9.26-6.17-18.63-12.19-27.61-18.73-7.33-5.34-14.32-11.18-21.21-17.09-5.45-4.67-10.53-9.77-15.75-14.71-.6-.57-1.04-1.33-1.93-2.49,4.01.18,7.51.29,11.01.52,3.94.26,7.9.48,11.8,1.06,1.6.24,3.3,1.09,4.56,2.14,7.42,6.12,14.47,12.73,22.15,18.49,8.57,6.43,17.65,12.19,26.59,18.11,2.99,1.98,6.26,3.55,9.89,5.58Z"/>
      <path class="cls-1" d="M100.92,157.56c10.99-28.09,28.9-50.15,55.79-63.91,18.7-9.57,38.77-13.78,60.34-11.5-2.6,2.96-4.77,5.54-7.08,7.99-.44.46-1.43.59-2.15.56-12.54-.54-24.72,1.58-36.61,5.33-15.82,5-29.49,13.63-41.76,24.78-10.3,9.36-17.78,20.63-24.09,32.84-.36.7-.6,1.46-.9,2.19-.61,1.45-1.51,2.38-3.54,1.71Z"/>
      <path class="cls-1" d="M86.1,173.85c8.25-61.7,72.34-118.29,146-106.02-.92,2.24-2.8,3.53-4.93,3.3-23.72-2.57-46.25,1.79-67.71,11.91-16.66,7.87-31.04,18.86-42.72,33.12-11.16,13.62-19.36,28.91-24.69,45.77-1.32,4.18-3.93,7.95-5.95,11.91Z"/>
      <path class="cls-1" d="M232.85,352.5c-11.98,5.35-57.66,3.14-68.98-3.38,2.33-.79,4.57-1.5,6.77-2.32,4.66-1.73,9.41-3.26,13.9-5.36,4.38-2.04,8.81-1.75,13.13-.75,5.19,1.19,10.24,3.03,15.29,4.75,6.63,2.26,13.2,4.68,19.88,7.06Z"/>
      <path class="cls-1" d="M110.04,74.64c-3.08,2.87-5.81,5.49-8.66,7.99-.57.5-1.57.62-2.39.71-14.11,1.47-25.72,7.23-33.3,19.66-4.78,7.84-5.92,16.6-5.48,25.56.22,4.48,1.15,8.92,1.78,13.37.18,1.31.42,2.61.64,3.91l-.56.22c-.3-.62-.66-1.22-.9-1.87-3.87-10.64-5.67-21.56-3.98-32.83,2.43-16.16,11.9-26.76,26.75-32.82,7.88-3.22,16.2-4.05,24.64-4.07.37,0,.75.09,1.46.18Z"/>
      <path class="cls-1" d="M231.87,317.38c4.37-2.95,8.65-6.03,13.12-8.81,6.3-3.91,12.84-7.42,19.1-11.39,12.58-7.98,23.31-18.04,32.5-29.76,1.66-2.11,3.23-4.36,6.5-3.31-15.78,29.01-43.95,46.55-71.22,53.27Z"/>
      <path class="cls-1" d="M314.31,160.15c-1.71-.88-2.75-1.88-3.77-1.85-2.94.07-3.98-1.67-5.09-3.97-7-14.57-16.71-27.09-28.94-37.66-.42-.36-.84-.72-1.25-1.09-.11-.1-.16-.26-.34-.58,1.28-1.77,2.6-3.61,4.18-5.81,16.25,13.77,27.24,30.96,35.2,50.97Z"/>
      <path class="cls-1" d="M116.87,327.02c-31.76-.14-52.89-22.84-46.98-55.6,3.8,6.23,6.13,12.87,7.21,20.18,2.3,15.56,11.28,26.07,25.98,31.56,3.61,1.35,7.44,2.08,11.17,3.1.88.24,1.75.51,2.62.76Z"/>
    </g>
  </g>
</svg>