<?xml version="1.0" encoding="UTF-8"?>
<svg id="Layer_2" data-name="Layer 2" xmlns="http://www.w3.org/2000/svg" viewBox="0 0 1080 1080">
  <defs>
    <style>
      .cls-1 {
        fill: #333a42;
      }

      .cls-1, .cls-2 {
        stroke-width: 0px;
      }

      .cls-2 {
        fill: #fff;
      }
    </style>
  </defs>
  <rect class="cls-1" x="0" width="1080" height="1080"/>
  <g>
    <g>
      <path class="cls-2" d="M395.6,845.07c1.06-3.72,2.17-6.84,3.95-9.6.67-1.04,2.27-1.61,3.56-2.1,11.16-4.31,22.29-8.68,33.52-12.79,24.03-8.8,48.12-17.47,72.19-26.18,1.17-.43,2.37-.79,4.15-1.38-.78,3.65-2.07,6.55-3.66,9.24-.54.92-2.11,1.34-3.28,1.77-16.18,5.95-32.4,11.78-48.54,17.81-19.64,7.33-39.23,14.82-58.84,22.23-.79.3-1.61.54-3.04,1.01Z"/>
      <path class="cls-2" d="M497.02,962.27c-2.04,4.2-5.34,6.98-9.44,8.66-6.19,2.53-12.65,3.41-19.29,2.12-8.27-1.61-11.31-7.58-7.64-15.19.94-1.95,2.3-3.71,3.52-5.51.78-1.15,1.67-2.23,2.56-3.41-1.48-1.04-2.75-1.9-3.98-2.8-2.45-1.81-3.33-4.28-2.5-7.15.56-1.95,1.24-4.02,2.45-5.6,2.33-3.05,4.94-5.92,7.67-8.62,3.21-3.18,5.34-2.17,7.44,1.77.68,1.27.51,3.27.13,4.78-.52,2.09-1.67,2.53-3.77,1.62-1.85-.81-3.53-.69-5.17.23-1.4.78-2.7,2.11-2.19,3.7.36,1.13,1.67,2.34,2.83,2.76,2.75,1,5.64.7,8.25-.62,2.17-1.09,4.17-2.52,6.24-3.82.93-.58,1.84-1.2,2.76-1.81.25.13.51.26.76.39-.26,1.41-.32,2.88-.81,4.21-1.19,3.27-3.64,5.53-6.43,7.49-3.79,2.66-7.64,5.25-11.23,8.15-1.65,1.33-3.01,3.19-4.06,5.06-1.37,2.46-.52,4.65,2.15,5.53,2.04.68,4.27.96,6.43,1.06,7.88.35,15.62-.56,23.3-2.99Z"/>
      <path class="cls-2" d="M669.45,818.02c1.28.93,2.54,1.79,3.75,2.73,1.35,1.05,1.97,2.47,1.36,4.09-.84,2.25-1.88,4.42-2.93,6.84-2.32-1.54-4.22-2.79-6.39-4.23-13.07,13.53-28.47,22.78-46.92,26.36l-.6-.94c1.21-.8,2.38-1.68,3.64-2.39,6.18-3.44,12.57-6.55,18.53-10.33,6.61-4.19,12.85-8.98,19.24-13.53.5-.36.86-.91,1.3-1.39-2.26-1.5-4.53-2.76-6.5-4.38-4.41-3.63-5.04-7.37-2.19-12.28,1.96-3.38,4.54-6.25,7.93-8.28,2.47-1.48,5.05-2.77,7.96-1.13,2.86,1.61,3.41,4.38,3.33,7.31-.06,2.18-.31,4.36-.59,6.52-.21,1.64-.59,3.27-.92,5.02ZM664.07,816.65c1.58-5.1.83-8.21-1.75-9.15-2.02-.74-3.93.55-5.58,4.11,2.27,1.57,4.63,3.19,7.33,5.04Z"/>
      <path class="cls-2" d="M120.57,819.81c-.8-.63-1.55-1.27-2.35-1.85-3.33-2.44-6.27-1.33-7.08,2.76-.3,1.5-.38,3.08-.29,4.61.28,5.13.71,10.26,1.04,15.39.17,2.69.33,5.39.31,8.09-.02,1.77-.08,3.64-2.19,5.21-.7-.73-1.55-1.41-2.13-2.26-2.75-4.03-5.35-8.18-8.17-12.16-1.86-2.63-4.15-4.87-7.45-6.03-.84,1.06-1.61,2.02-2.51,3.16-1.4-.37-2.77-.66-4.1-1.08-4.94-1.57-5.69-2.61-5.16-7.88.77-7.61,3.73-9.71,11.13-6.07,4.99,2.46,8.38,6.73,11.56,11.13,1.42,1.96,2.71,4.01,4.66,5.92-.18-1.77-.38-3.55-.53-5.32-.37-4.23-.84-8.45-1.05-12.68-.19-3.64.45-7.2,2.11-10.49,2.54-5.04,8.55-5.54,11.97-1.03,2.22,2.92,2.38,7.17.25,10.59Z"/>
      <path class="cls-2" d="M772.87,976.75c1.06-2.1,2.74-3.02,4.39-3.93,2.59-1.43,5.27-2.7,7.82-4.18,5.28-3.05,9.67-7.18,13.99-11.46,3.91-3.88,7.98-7.7,12.43-10.91,4.94-3.56,10.48-4.54,16.39-1.7,3.64,1.75,5.94.94,8.4-2.26,1.4-1.83,2.67-3.75,4.03-5.61.12-.17.47-.17.95-.34.44,1,.79,2.07,1.34,3.03,1.02,1.75,2.7,2.32,4.63,2.11,2.04-.22,2.73-1.63,2.91-3.49.1-1.02.29-2.05.61-3.02.4-1.24,1.03-2.35,3.07-2.29.2,5,0,9.8-2.44,14.21-1.8,3.25-5.73,4.61-9.37,3.4-1.21-.4-2.35-1.03-3.92-1.73-1.06,1.01-2.23,2.15-3.43,3.26-2.51,2.33-5.41,3.11-8.51,1.49-7.51-3.94-13.97-1.74-19.89,3.3-4.7,4-9.14,8.31-13.84,12.3-5.13,4.35-11.33,6.49-17.8,7.9-.45.1-.95-.03-1.77-.08Z"/>
      <path class="cls-2" d="M177.17,821.58c-1.12.56-2.11,1.06-3.28,1.65-1.15-1.07-2.31-2.06-3.38-3.16-3.57-3.66-3.66-5.76-.33-9.62.83-.96,1.88-1.75,2.93-2.47,1.7-1.16,3.55-1.13,4.92.39,1.87,2.08,4.06,4.17,5.04,6.67,1.53,3.9,2.22,8.14,3.12,12.27.37,1.71.37,3.51.62,6.15,2.04-4.39,3.53-8.04,5.4-11.49,1.71-3.15,3.83-6.07,5.79-9.08.21-.32.51-.58.78-.85,3.52-3.53,7.05-4.06,9.85-1.46,2.88,2.67,2.96,7.46.11,10.84-.56.66-1.33,1.14-2.24,1.89-.61-.87-1.12-1.55-1.56-2.27-2.1-3.45-4.31-3.66-6.93-.53-.98,1.17-1.88,2.47-2.55,3.85-2.06,4.28-3.95,8.65-6,12.94-1.27,2.66-2.61,5.31-4.17,7.8-.51.82-1.84,1.13-2.79,1.67-.46-.96-1.23-1.9-1.32-2.9-.31-3.33-.21-6.69-.57-10.01-.46-4.19-1-8.41-3.42-12.28Z"/>
      <path class="cls-2" d="M61.56,818.73c-.51,1.49-.93,2.9-1.47,4.27-3.1,7.9-6.34,15.79-7.6,24.23-.57,3.77-.52,7.67-.34,11.49.08,1.69.91,3.52,1.88,4.96,1.98,2.92,5.01,3.17,7.57.74,1.19-1.13,2.06-2.6,3.03-3.95.7-.98,1.31-2.03,1.96-3.04.25.08.5.16.76.23.07.68.28,1.37.2,2.03-.61,4.75-1.72,9.37-4.34,13.47-1.93,3.02-4.39,5.77-8.27,5.45-3.91-.33-6.38-3.17-7.94-6.59-1.91-4.21-2.17-8.74-1.76-13.25,1.26-13.7,6.17-26.2,13-38,.59-1.01,1.11-2.42,3.32-2.02Z"/>
      <path class="cls-2" d="M395.2,935.69c-.75,1.82-1.19,2.74-1.53,3.71-1.34,3.79-3.98,6.02-7.75,7.42-14.34,5.32-28.61,10.82-42.91,16.25-2.23.85-4.47,1.68-7.34,2.76,1.56-5.2,3.16-9.05,8.26-10.89,14.75-5.31,29.37-11,44.04-16.54,2.13-.8,4.26-1.6,7.23-2.71Z"/>
      <path class="cls-2" d="M920.33,797.02c.7,2.96,1.29,5.43,1.88,7.9.39,1.62.61,3.31,1.24,4.84.46,1.12,1.28,2.36,2.28,2.91.97.53,2.68.73,3.54.2.83-.51,1.48-2.17,1.35-3.22-.23-2.01-1.07-3.94-1.66-5.91-.81-2.67-1.11-5.31.71-7.73.36-.48.9-.83,1.65-1.5,2.38,6.02,4.42,11.73,3.5,18.05-.07.51-.17,1.02-.29,1.51-1.68,6.85-6.38,8.83-12.46,5.24-.65-.38-1.28-.79-1.8-1.11-1.44,1.38-2.65,2.7-4.02,3.83-4.84,4-10.34,2.08-11.54-4.07-.42-2.13-.44-4.34-.65-6.51-.1-1.02-.13-2.06-.35-3.05-.85-3.97-.4-4.98,3.75-7.6.22.89.55,1.66.59,2.45.15,3.08.05,6.18.35,9.24.33,3.44,2.58,4.6,5.72,3.09,2.5-1.2,4.11-3.08,3.83-6.07-.2-2.17-.42-4.34-.69-6.5-.3-2.35.21-4.3,3.07-5.99Z"/>
      <path class="cls-2" d="M888.49,802.19c.54-3.26,1.94-5.69,3.18-8.15.29-.57,1.19-.93,1.89-1.19,16.38-6.05,32.76-12.08,49.15-18.1.33-.12.74-.05,1.12-.08-.47,4.84-2.71,7.9-6.74,9.41-15.26,5.72-30.52,11.47-45.78,17.19-.79.3-1.6.52-2.81.91Z"/>
      <path class="cls-2" d="M318.63,817.91c-.76,2.39-1.6,4.76-2.27,7.18-1.06,3.83-2.23,7.65-2.9,11.55-.43,2.47-.43,5.17.09,7.62.82,3.88,4.06,4.59,6.8,1.75.96-1,1.84-2.07,2.91-3.29.37,3.89-.96,8.89-2.88,11.25-3.26,4.02-8.63,3.39-10.4-1.48-.94-2.58-1.42-5.53-1.29-8.27.41-8.87,3.34-17.06,7.67-24.77.39-.7,1.1-1.23,1.67-1.83.2.1.4.19.6.29Z"/>
      <path class="cls-2" d="M737.34,845.85c-1.02,3.12-1.87,6.32-3.13,9.35-.97,2.33-2.73,4.23-5.53,4.13-3.06-.11-4.92-2.14-5.86-4.84-.58-1.67-.98-3.52-.93-5.27.31-9.97,3.45-19.15,8.25-27.8.33-.59,1.03-.97,1.81-1.69.63,1.88-.33,3.03-.71,4.28-1.49,4.91-3.13,9.78-4.45,14.74-.52,1.95-.56,4.09-.41,6.12.11,1.47.66,3.04,1.43,4.31,1.43,2.37,3.52,2.46,5.36.34,1.13-1.31,2.03-2.81,3.04-4.23.38.19.75.39,1.13.58Z"/>
      <path class="cls-2" d="M97.44,660.71c4.71,3.36,8.76,6.23,12.8,9.13,1.18.85,1.54,1.93.88,3.34-1.79,3.82-3.75,7.53-6.69,11.23-5.15-2.53-9.61-5.87-14.66-9.18,2.51-4.75,4.92-9.3,7.68-14.52Z"/>
      <path class="cls-2" d="M807.72,638.43c2.24,1.01,3.58,1.45,4.74,2.17,2.06,1.28,4.2,2.52,5.93,4.18.84.81,1.29,2.57,1.13,3.79-.51,3.95-2.11,4.91-5.82,3.45-2.11-.83-4.19-2.02-5.94-3.45-2.95-2.4-3.64-5.43-2.61-9.32,2.13-8.1,6.85-13.58,14.57-16.7,9.42-3.8,18.73-7.87,28.17-11.59,15.91-6.26,31.82-12.52,47.85-18.46,21.7-8.03,43.51-15.75,65.26-23.63,2.16-.78,4.25-1.72,7-2.83-.89,4.1-1.31,7.76-4.93,9.82-1.78,1.01-3.69,1.82-5.61,2.52-24.75,9.07-49.61,17.82-74.23,27.23-21.49,8.22-42.71,17.15-64.02,25.81-2.49,1.01-4.91,2.26-7.26,3.59-1.27.72-2.32,1.84-4.23,3.4Z"/>
      <path class="cls-2" d="M831.12,566.39c-1.92,6.43-5.53,9.76-11.06,11.87-34.95,13.35-69.82,26.92-104.69,40.48-5.27,2.05-10.42,4.42-15.63,6.63-1.27.54-2.56,1.01-4.51,1.76,1.09-4.88,1.7-9.02,6.62-10.99,16-6.39,31.84-13.19,47.91-19.38,25.44-9.79,51.02-19.2,76.54-28.77,1.4-.52,2.84-.95,4.81-1.61Z"/>
      <path class="cls-2" d="M192.3,615.63c1.47-2.81,2.81-5.7,4.49-8.38.61-.97,1.98-1.59,3.12-2.08,21-9.05,42.02-18.06,63.04-27.08,7.67-3.29,15.34-6.58,23.02-9.86.44-.19.91-.3,1.98-.64-.75,2.61-1.15,4.89-2.09,6.91-.46.99-1.85,1.72-2.97,2.21-6.83,2.98-13.74,5.79-20.56,8.79-21.4,9.42-42.78,18.9-64.16,28.37-1.73.77-3.42,1.65-5.13,2.47-.24-.24-.49-.48-.73-.72Z"/>
      <path class="cls-2" d="M620.89,610.33c1.84-1.32,3.64-2.7,5.53-3.95,8.14-5.4,16.32-10.72,24.44-16.15,1.57-1.05,2.91-2.45,4.27-3.61-.15-.4-.16-.57-.25-.63-5.32-3.71-6.03-5.55-4.67-12,.58-2.75,1.14-5.51,1.67-8.28.91-4.72,3.78-6.46,8.42-5.07,9.33,2.8,15.39,11.71,14.58,21.05-.37,4.25-3.49,8.36-8.68,5.69-2.22-1.14-3.66-.11-5.08,1.3-10.37,10.34-23.4,16.11-36.73,21.36-1.02.4-2.11.62-3.16.93-.11-.21-.23-.43-.34-.64ZM661.29,574.94c-.01-2.24-3.02-5.03-5.16-4.66-.54.09-1.13.57-1.49,1.04-2.1,2.74-1.19,5.14,2.37,6.4,2.79.99,4.29.01,4.27-2.78ZM664.78,572.97c-1.44,1.49-1.93,3.49-1.04,4.87,1.45,2.27,4.15,2.84,7.27,3.51-1.02-4.02-2.98-6.55-6.23-8.38Z"/>
      <path class="cls-2" d="M549.91,563.28c-1.14,2.53-2.05,5.2-3.52,7.52-.72,1.14-2.42,1.77-3.8,2.36-17.48,7.46-35,14.83-52.46,22.33-6.25,2.69-12.37,5.69-18.56,8.5-1.46.66-3,1.16-4.5,1.74-.23-.22-.45-.44-.68-.66,1.15-2.63,2.13-5.36,3.52-7.86.55-.97,1.96-1.59,3.09-2.09,15.61-6.91,31.22-13.84,46.89-20.6,8.49-3.66,17.11-7.01,25.68-10.49,1.18-.48,2.39-.88,3.59-1.31.25.19.5.37.75.56Z"/>
      <path class="cls-2" d="M62.84,605.72c-.63,1.65-1.25,3.31-1.9,4.95-3.73,9.34-6.88,18.84-8.48,28.81-.6,3.73-.64,7.42.36,11.09.7,2.57,2.06,4.72,4.15,6.34,2.5,1.94,5.12,1.67,7.09-.83,1.57-1.99,2.91-4.16,4.74-6.8.27,1.01.51,1.44.47,1.83-.6,5.8-1.93,11.41-4.77,16.56-1.9,3.46-4.48,6.07-8.77,5.86-4.26-.21-7.34-2.54-8.93-6.35-1.17-2.8-1.99-5.86-2.34-8.87-.84-7.38.25-14.66,2.27-21.75,2.61-9.18,6.26-17.97,11.12-26.21,1.14-1.93,2.16-4.06,4.27-5.17.25.18.49.36.74.53Z"/>
      <path class="cls-2" d="M528.62,639.38c1.12-5.1,2.36-8.8,7.14-11.19,14.53-7.26,29.66-13.03,44.73-18.95,7.78-3.05,15.6-5.99,23.42-8.95,1.28-.48,2.61-.83,4.66-1.47-1.02,2.94-1.49,5.37-2.68,7.37-.75,1.26-2.45,2.16-3.92,2.74-7.29,2.89-14.73,5.4-21.96,8.45-15.63,6.6-31.16,13.44-46.74,20.17-1.36.59-2.76,1.08-4.66,1.82Z"/>
      <path class="cls-2" d="M1008.64,598.1c-1.43-1.11-2.43-1.87-3.42-2.65-4.28-3.36-5.5-7.04-3.9-12.25,1.3-4.24,4.06-7.46,7.76-9.74,4.33-2.67,8.7-.4,9.22,4.66.21,2.04.16,4.11.04,6.16-.12,1.91-.49,3.8-.75,5.66,4.91,4.75,5.1,8.42.52,12.78-1.56-.87-3.2-1.79-5-2.79-11.14,13.82-25.71,22.06-42.92,27.65,1.1-3.24,3.36-3.86,5.08-5.04,7.85-5.36,15.81-10.55,23.55-16.06,3.41-2.42,6.4-5.44,9.82-8.39ZM1012.45,587.96c.82-3.92-.03-5.87-2.54-6.67-2.02-.64-2.88-.04-4.07,3.26,2.11,1.09,4.29,2.22,6.61,3.41Z"/>
      <path class="cls-2" d="M410.25,601.39c-1.62-1.37-3.06-2.59-4.66-3.94-8.46,11.09-19.48,18.64-31.92,24.22-3.34,1.5-6.79,2.92-10.86,2.48,6.74-4.35,13.6-8.52,20.17-13.1,6.5-4.53,12.89-9.28,18.32-15.61-1.72-1.09-3.24-1.99-4.68-2.99-4.1-2.85-5.29-6.85-3.43-11.46,1.47-3.64,3.75-6.76,6.6-9.39,4.31-3.96,9.26-2.39,10.1,3.42.51,3.5,0,7.14-.13,10.72-.05,1.27-.36,2.37.73,3.54,4.34,4.68,4.29,6.7-.24,12.1ZM405.24,586.75c.52-2.71-.02-4.36-.99-5.89-1.02-1.62-2.6-2.13-4.34-1.61-.74.22-1.55.97-1.84,1.68-.19.47.33,1.55.84,1.91,1.85,1.29,3.84,2.4,6.32,3.91Z"/>
      <path class="cls-2" d="M116.6,580.79c-1.95-1.23-3.47-2.42-5.18-3.22-2.23-1.05-3.31-.58-4.16,1.72-.57,1.56-.85,3.23-1.23,4.85-1.72,7.25-3.42,14.51-5.17,21.76-.29,1.21-.81,2.37-1.3,3.78-1.78-.8-2.07-2.27-2.53-3.49-1.82-4.81-3.59-9.64-5.29-14.5-.91-2.6-1.97-4.75-5.39-4.09-.8.15-1.73-.37-2.59-.6-2.71-.71-5.3-1.63-5.56-4.99-.28-3.6,1.17-6.55,3.9-8.81,1.21-1.01,2.75-.84,3.99-.02,1.6,1.05,3.21,2.18,4.52,3.56,3.06,3.21,5.16,7.03,6.53,11.26.58,1.78,1.23,3.55,2.53,5.3.35-1.8.56-3.64,1.09-5.39,1.52-5.03,3.14-10.04,4.79-15.03.32-.96.9-1.85,1.47-2.71,1.4-2.11,3.03-3.92,5.95-3.34,2.45.49,5.15,3.22,5.56,5.85.44,2.86.24,5.64-1.9,8.13Z"/>
      <path class="cls-2" d="M752.87,641.04c-3.77,1.3-8.82-.57-10.5-3.79-.38-.74-.62-1.82-.37-2.57.73-2.17,1.48-4.42,2.7-6.33,1.51-2.36,3.74-2.84,6-1.14,2.11,1.59,4.02,3.62,5.52,5.8,3.14,4.58,5.34,9.66,7.34,15.19.22-.84.52-1.67.65-2.53.9-5.99,1.87-11.97,4.46-17.52.81-1.73,1.73-3.48,2.94-4.94,1.98-2.39,4.73-2.49,7.2-.59,3.92,3.02,4.35,8.49.66,12.93-1.24-.95-2.52-1.91-3.79-2.9-2.01-1.57-3.07-1.48-4.26.81-.82,1.57-1.36,3.33-1.78,5.07-1.36,5.62-2.58,11.28-3.91,16.91-.96,4.08-1.75,5.51-4.43,8.03-1.72-7.99-3.41-15.74-8.42-22.42Z"/>
      <path class="cls-2" d="M274.68,603.24c2.32,5.84,4.95,10.96,5.25,16.88.19,3.78-.99,7.1-3.27,10.04-2.87,3.69-5.82,3.84-9.02.52-.87-.91-1.64-1.92-2.68-3.15-.79,1.42-1.38,2.65-2.12,3.78-1.52,2.3-3.61,3.66-6.48,3.36-2.83-.3-4.91-1.85-5.7-4.51-.65-2.17-.72-4.53-.96-6.81-.27-2.57.61-5.51-2.71-6.99-.44-.2-.61-1.66-.45-2.45.62-2.99,2.15-5.39,5.43-7.19.5,1.7,1.08,3.07,1.29,4.49.22,1.51.1,3.07.11,4.61.01,1.54-.13,3.09.03,4.62.35,3.28,2.29,5.58,4.42,5.47,2.64-.14,5.29-3.13,5.25-6.23-.02-2.31-.4-4.61-.59-6.91-.14-1.66-.31-3.33-.33-5-.02-1.44.31-2.8,2.48-3.43.4,1.38.89,2.65,1.14,3.96.66,3.41,1.09,6.86,1.88,10.24.4,1.7,1.13,3.43,2.15,4.85,1.08,1.51,3.12,1.61,4.53.73,1.51-.95,1.47-2.39.98-3.75-.52-1.42-1.18-2.85-2.07-4.07-2.8-3.85-2.49-8.93,1.46-13.04Z"/>
      <path class="cls-2" d="M580.45,730.26c-2.04,2.29-3.97,4.7-6.15,6.86-6.15,6.12-13.48,10.31-21.82,12.59-6.32,1.73-12.74,3.11-19.12,4.6-.69.16-1.44.02-2.35.02.43-2.1,2.15-2.32,3.45-2.88,6.85-2.94,13.83-5.61,20.58-8.77,5.11-2.38,10.03-5.2,14.88-8.1,4.16-2.48,7.13-6.16,9.54-10.41,1.3-2.3,3.1-4.43,5.08-6.19,2.43-2.16,4.46-1.79,6.73.61,2.34,2.49,3.32,5.48,3,8.85-.38,4.06-2.89,6.06-6.87,5.21-2.23-.47-4.35-1.49-6.95-2.41ZM583.49,725.01c1.95,1.08,3.41,2.6,5.73,1.93.52-2.19-.76-3.27-2.24-3.98-1.64-.79-2.55.4-3.49,2.05Z"/>
      <path class="cls-2" d="M867.79,582.42c.59-2.69.93-5.26,1.72-7.67,1.11-3.4,2.41-6.75,3.89-10.01.95-2.09,2.61-3.5,5.22-3.11,2.17.32,3.39,1.63,4.08,3.61.82,2.4.65,4.51-1.76,6.3-1.37-.99-2.67-1.93-4.04-2.92-2.6,1.01-3.27,3.31-3.84,5.49-1.4,5.34-2.56,10.75-3.88,16.11-.41,1.69-1.01,3.33-1.52,4.99-.3.06-.59.11-.89.17-.7-1.25-1.62-2.44-2.07-3.78-1.19-3.53-2.15-7.13-3.26-10.69-.8-2.57-1.8-4.63-5.32-4.19-2.29.29-5.31-2.9-5.64-5.08-.32-2.13,1.83-5.54,4.03-6.55,1.52-.7,2.91-.27,3.93.7,1.58,1.48,3.27,3.04,4.24,4.91,1.93,3.73,3.39,7.69,5.11,11.72Z"/>
      <path class="cls-2" d="M855.66,726.88c.58,1.75-.85,3.75,1.55,4.27,1.64.36,3.21-.55,4.25-2.6.77-1.52,1.43-3.09,2.63-4.5,1.03,3.99.85,7.8-.76,11.49-.7,1.61-2.17,2.19-3.79,2.16-2.42-.05-4.84-.27-7.58-.44-.4.45-1,1.1-1.58,1.77-1.7,1.97-3.75,2.71-6.2,1.56-6.43-3.02-12.08-1.06-17.24,2.91-3.45,2.66-6.62,5.7-9.9,8.59-3.44,3.03-7.32,5.21-11.88,6.02-.71.13-1.45.09-3.11.19,1.63-1,2.42-1.61,3.31-2.02,4.85-2.26,8.86-5.6,12.68-9.3,3.86-3.75,7.87-7.37,12.03-10.78,4.27-3.51,9.19-4.55,14.45-2.36,2.68,1.12,4.74.41,6.53-1.64,1.43-1.63,2.85-3.28,4.6-5.3Z"/>
      <path class="cls-2" d="M220.7,655.43c-.15,4.59-1.07,8.89-3.92,12.47-2.06,2.59-4.52,2.71-7.04.54-2.77-2.39-3.4-5.65-3.45-9.08-.07-4.93.61-9.78,2.24-14.41,1.36-3.87,3.03-7.64,4.65-11.41.54-1.27,1.34-2.43,2.64-3.52-.12.88-.16,1.77-.39,2.62-1.26,4.72-2.8,9.37-3.76,14.14-.63,3.1-.55,6.37-.58,9.56-.02,1.9.79,3.66,2.77,4.21,1.95.54,3.45-.61,4.63-2.07.79-.98,1.48-2.03,2.21-3.05Z"/>
      <path class="cls-2" d="M581.98,561.48c-.51,1.54-.97,2.7-1.28,3.9-1.34,5.22-2.91,10.4-3.84,15.7-.48,2.68-.28,5.71.48,8.33,1.07,3.65,3.54,3.83,5.75.81,1.03-1.41,2.01-2.87,3.34-4.15-.53,4.06-1.03,8.11-3.46,11.52-2.87,4.03-7.2,3.62-9.45-.81-1.76-3.47-1.91-7.2-1.46-10.94.93-7.61,3.33-14.78,6.97-21.53.42-.78.99-1.5,1.57-2.19.2-.24.62-.3,1.39-.65Z"/>
      <path class="cls-2" d="M877.24,620.61c-.28.91-.62,1.81-.84,2.73-1.3,5.49-2.78,10.94-3.75,16.49-.38,2.16.05,4.65.79,6.76.95,2.71,3.1,2.87,4.95.64,1.18-1.43,2.19-2.99,3.5-4.35.16,4.06-.9,7.73-3.05,10.98-2.31,3.48-5.2,3.67-7.85.46-1.17-1.42-2.18-3.31-2.41-5.09-.37-2.89-.32-5.9.05-8.8.79-6.05,3.15-11.62,5.98-16.99.58-1.09,1.41-2.05,2.12-3.07.17.09.34.17.51.26Z"/>
      <path class="cls-2" d="M198.3,562.1c9.14,5.09,14.28,22.61,9.48,33.68-.49-1.88-.86-3.14-1.13-4.43-.53-2.51-.96-5.04-1.51-7.54-.97-4.42-3.35-7.99-6.71-10.97-4.32-3.84-4.36-5.96-.13-10.74Z"/>
      <path class="cls-2" d="M147.19,615.91c.31,3.92-.82,7.43-3,10.5-2.6,3.65-6.91,3.31-8.98-.7-.74-1.44-1.21-3.15-1.32-4.77-.68-10.1,2.07-19.29,7.68-27.67.28-.42.41-.95.61-1.43.3.22.59.44.89.66-.41,1.01-.83,2.01-1.23,3.03-2.35,5.87-4.23,11.87-4.18,18.28.01,1.64.21,3.36.75,4.89,1.03,2.9,3.1,3.35,5.29,1.24,1.27-1.23,2.33-2.68,3.48-4.03Z"/>
      <path class="cls-2" d="M716.84,561.85c-.74,2-1.42,4.02-2.22,6-1.73,4.33-2.9,8.78-3.04,13.46-.03.9-.04,1.8.06,2.69.18,1.71.55,3.46,2.45,3.99,1.83.52,2.73-1.03,3.71-2.2.63-.76,1.24-1.53,2.3-2.84.17,4.24-.55,7.5-2.72,10.31-2.14,2.77-5.03,2.86-7.04,0-1.13-1.62-2.09-3.69-2.22-5.62-.58-8.84,1.88-17,6.32-24.6.38-.65.8-1.29,1.2-1.94.4.25.8.49,1.2.74Z"/>
      <g>
        <g>
          <path class="cls-2" d="M107.63,915.75c.72-1.78,1.23-3.17,1.83-4.52,1.97-4.36,3.97-8.71,6.03-13.23,1.49,0,2.74,0,3.99,0,27.02.18,54.04.36,81.06.53,3.04.02,6.09.06,9.13-.02,6.41-.17,11.11-3.24,14.16-8.75,1.9-3.43,3.41-7.06,5.28-10.5,2.42-4.43,4.72-8.97,7.62-13.08,3.54-5.01,8.44-8.36,14.72-9.25,7.15-1,13.05,1.27,17.35,7.09,1.72,2.33,3.13,4.9,4.5,7.46,2.27,4.24,4.34,8.58,6.59,12.83,4.87,9.21,12.4,14.07,23,13.99,14.21-.11,28.41-.11,42.62-.19,1.51,0,3.05-.15,4.54-.43,7.39-1.37,10.68-4.93,10.77-12.4.09-7.46-.07-14.93-.5-22.37-1.08-18.81-2.36-37.61-3.61-56.41-.11-1.72-.1-3.22,1.34-4.47,3.73-3.23,7.4-6.53,11.12-9.78.23-.2.66-.18,1.33-.33.05,1.12.1,2.08.14,3.04,1.23,28.81,2.45,57.62,3.7,86.43.07,1.63.38,3.26.67,4.87,1.14,6.24,5.21,9.65,11.15,11,2.33.53,4.77.79,7.16.8,17.25.05,34.51.2,51.76-.11,6.17-.11,12.33-1.31,18.46-2.2,1.8-.26,3.51-1.13,5.47-1.8-4.17-4.27-8.01-8.24-11.92-12.16-1.07-1.07-2.34-1.94-3.49-2.93-2.28-1.96-4.84-3.19-7.89-3.35-.96-.05-1.9-.37-3.26-.65.43-1.48.73-2.66,1.12-3.81,1.36-3.94,2.79-7.86,4.12-11.82.61-1.81,1.67-2.94,3.5-3.65,12.39-4.83,25.24-6.64,38.45-5.62,5.28.41,10.61,1.24,15.73,2.57,3.99,1.04,7.68,3.17,11.52,4.8,2.7,1.14,3.17,3.22,2.82,5.89-.96,7.45-4.28,13.75-9.45,19.04-3.44,3.53-7.25,6.69-10.89,10.03-.44.4-.82.87-1.44,1.53,5.79,2.56,11.62,3.64,17.52,4.08,5.43.4,10.9.21,16.35.26.88,0,1.78-.06,2.65-.2,6.12-1,11.01-3.74,10.52-12.29-.54-9.34-1.11-18.68-1.74-28.02-1.08-16.03-1.98-32.07-3.44-48.06-.52-5.73,1.29-9.79,5.59-13.16,2.15-1.68,4.27-3.39,7.06-5.61.21,11.8,5.06,20.99,11.24,30-1.32.94-2.38,1.8-3.53,2.49-2.64,1.57-3.65,3.6-3.52,6.85.65,16.17,1.03,32.36,1.43,48.54.19,7.66-.78,15.15-3.81,22.27-.45,1.05-.93,2.08-1.35,3.13-3.53,8.8-10.48,13.37-19.52,14.24-16.26,1.56-31.9-.77-46.08-9.58-1.4-.87-2.79-1.75-4.19-2.62-.21-.13-.46-.21-.91-.41-.63.32-1.44.65-2.16,1.1-12.11,7.62-25.43,11.43-39.64,11.69-15.85.29-31.71.07-47.57,0-2.4,0-4.82-.26-7.2-.61-6.91-1.02-12.81-3.91-17.12-9.58-.46-.6-.95-1.18-1.43-1.77-.08-.09-.2-.14-1.08-.99-.12.5-.13,1.06-.37,1.5-4.48,8.09-12.11,10.74-20.65,11.45-4.67.39-9.38.22-14.07.22-9.77,0-19.54-.21-29.3-.03-8.39.16-15.28-3-21.33-8.48-.53-.48-1.07-.94-1.83-1.61-.78,1.95-1.36,3.59-2.07,5.17-2.75,6.11-7.34,8.95-13.99,8.07-10.77-1.43-20.5-5.53-29.09-12.21-1.39-1.08-2.76-2.18-4.29-3.39-.44.49-.84.78-1.06,1.18-4.31,7.58-11.21,10.72-19.55,11.1-5.06.23-10.15.09-15.22.06-12.05-.07-24.1-.17-36.15-.25-1.36,0-2.72,0-4.31,0,.23,1.77.47,3.11.57,4.46.91,11.3-2.54,20.77-12.13,27.35-15.66,10.74-32.83,16.9-52.07,16.27-6.61-.22-13.13-1.06-19.32-3.61-14.4-5.93-22.02-16.87-23.88-32.06-1.6-13.09,2.48-33.06,9.26-45.08,2.44.11,5.06.24,7.94.37-1.2,4.1-2.44,7.91-3.42,11.79-2.06,8.15-3.27,16.36-1.27,24.75,2.5,10.48,8.92,17.36,19.02,20.92,7.07,2.5,14.4,2.84,21.79,2.41,13.25-.76,25.8-3.93,37.04-11.27,1.37-.9,2.72-1.9,3.85-3.06,2.17-2.24,2.18-4.34-.44-6.05-2.6-1.7-5.56-3.05-8.54-3.96-4.84-1.47-9.83-2.45-14.76-3.65-2.79-.68-5.58-1.39-8.72-2.17ZM237.36,888.31c6.63,6.12,14.02,10.79,22.71,13.26,1.09.31,2.24.45,3.37.53,4.4.29,6.61-2,6.17-6.41-.1-.99-.34-2-.68-2.94-2.25-6.2-6.09-11.35-11.1-15.56-4.16-3.5-8.48-3.46-12.84-.14-3.61,2.75-6.16,6.31-7.62,11.26ZM503.87,870.86c-13.16-4.86-25.72-5.47-38.8-1.21,5.61,5.04,10.85,9.75,16.11,14.45.47.42,1.02.75,1.51,1.14,1.11.89,2.18.98,3.46.19,6.39-3.93,11.92-8.86,17.72-14.58Z"/>
          <path class="cls-2" d="M791.52,873.05c-1.01,3.16-1.8,5.28-2.36,7.46-.65,2.57-1.35,5.16-1.6,7.78-.6,6.23,3.35,10.82,9.61,11.32,6.56.53,11.86-1.83,14.83-7.79,2.01-4.04,3.39-8.43,4.75-12.76.63-2.01,1.61-3.31,3.54-4.01,2.6-.93,5.18-1.9,8.41-3.09-.33,2.09-.61,3.54-.78,4.99-.51,4.26-1.22,8.51-1.39,12.79-.18,4.48,2.03,7.74,6.34,9.37,4.11,1.55,8.93.55,11.74-3.03,1.75-2.23,3.2-4.93,3.95-7.65,1.28-4.61,2.05-9.38,2.74-14.13.35-2.44,1.43-3.9,3.67-4.71,2.36-.86,4.69-1.78,7.47-2.83-.37,4.3-.8,8.05-.99,11.82-.13,2.63-.07,5.3.17,7.93.47,5.03,3.41,8.38,7.93,10.28,2.19.92,4.59,1.61,6.94,1.82,7.59.67,15.2.81,22.77-.32,7.87-1.18,12.79-5.7,15.01-13.21.71-2.42,1.33-4.89,1.72-7.38.49-3.16,2.12-5.37,4.93-6.74,2.14-1.04,4.35-1.94,7.25-3.22-.22,2.15-.36,3.59-.52,5.03-.37,3.39-.98,6.77-1.09,10.17-.26,8.26,4.23,13.76,12.42,15.14,6.41,1.09,12.89,1.2,19.33.16,5.84-.94,9.44-4.21,10.24-10.13.57-4.23.56-8.58.32-12.85-1.22-21.34-2.64-42.67-3.93-64-.52-8.61-1.66-6.83,5.23-13.39,1.65-1.57,3.47-2.95,5.26-4.36.67-.53,1.49-.88,2.75-1.61.25,2.18.55,3.97.66,5.78,1.55,24.36,3.06,48.73,3.27,73.15.04,4.42.2,8.86.63,13.26.72,7.45,5.01,12.29,12.27,14.16,4.89,1.26,9.8,1.27,14.66-.12,4.32-1.23,7.01-3.99,7.53-8.52.24-2.12.36-4.3.23-6.43-1.5-24.62-2.93-49.24-4.71-73.84-.38-5.21,1.03-9.12,4.88-12.37,2.2-1.85,4.2-3.98,7.01-5.02,1.34,5.12,2.2,10.23,4.04,14.96,1.82,4.68,4.62,8.98,7.17,13.8-1.36,1.13-2.84,2.47-4.44,3.65-1.77,1.32-2.45,2.83-2.33,5.15.71,13.89,1.3,27.8,1.79,41.7.29,8.22.47,16.49-1.76,24.51-1.01,3.63-2.34,7.23-4.05,10.58-3.39,6.6-9.05,10.56-16.28,11.94-7.32,1.4-14.64,1.2-21.75-1.44-4.15-1.55-7.58-4.04-10.15-7.68-.78-1.11-1.63-2.16-2.61-3.46-.8,1.19-1.38,1.99-1.9,2.84-3.55,5.78-8.85,9.14-15.41,10.04-7.56,1.03-15.2.88-22.7-.83-6.41-1.46-11.83-4.47-15.45-10.18-.2-.31-.5-.55-1.02-1.09-.87.88-1.79,1.67-2.53,2.6-4.66,5.9-10.88,9.04-18.23,9.85-8.1.89-16.23.8-24.29-.44-7.01-1.08-13.08-3.96-17.11-10.16-.21-.32-.46-.61-.72-.88-.17-.17-.39-.29-.87-.64-.73,1.13-1.44,2.26-2.17,3.38-5.07,7.79-13.3,11.3-21.92,9.42-4.6-1-7.98-3.71-10.74-7.33-.83-1.09-1.57-2.24-2.59-3.7-4.91,7.29-11.49,11.08-20.16,11.1-8.56.03-15.33-2.99-19.56-11.01-.89.75-1.64,1.38-2.38,2.01-5.6,4.75-12.21,7.14-19.41,7.95-3.15.36-6.33.51-9.5.52-17.89.07-35.78.06-53.67.1-6.16.01-12.1-1.01-18.09-3.8-.31,1.93-.57,3.52-.82,5.1-1.98,12.58-6.97,23.74-15.85,32.99-2.09,2.17-4.49,4.1-6.96,5.85-3.88,2.75-8.35,3.64-13.04,3.13-9.11-.99-17.4-4.38-25.34-8.76-1.4-.77-2.1-1.73-1.52-3.39.29-.82.41-1.7.66-2.79,1.91,0,3.81-.29,5.6.05,13.78,2.63,24.5-2.76,33.69-12.44,4.22-4.44,7.7-9.38,10.55-14.79,1.63-3.09,2.18-6.31.78-9.5-2.03-4.61-4.34-9.11-6.62-13.6-1.43-2.82-3.15-5.49-4.51-8.33-.5-1.05-.83-2.61-.41-3.58,2.41-5.54,5.73-10.58,9.3-16.43.99,1.89,1.59,3.07,2.2,4.23,2.54,4.8,4.91,9.71,7.67,14.38,4.57,7.73,11.6,11.48,20.54,11.52,15.1.06,30.2.06,45.29-.03,7.48-.05,14.96-.22,22.43-.64,7.65-.43,13.39-4.35,17.46-10.69,1.7-2.65,3.23-5.45,4.56-8.31.93-2,2.24-3.26,4.33-3.86,2.27-.66,4.51-1.43,7.69-2.44Z"/>
          <path class="cls-2" d="M591.64,792.02c.2.87.41,1.45.45,2.04,1.36,25,2.94,50,3.92,75.02.41,10.33-.22,20.73-.84,31.07-.47,7.86-3.83,14.63-9.82,19.92-1.16,1.02-2.61,1.72-4.61,3.01,0-2.1-.09-3.32.01-4.52,1.47-17.96.63-35.9-.25-53.84-.79-16.04-1.83-32.07-2.78-48.1-.16-2.78-.51-5.55-.55-8.32-.02-1.18.18-2.7.91-3.5,3.67-4,7.54-7.83,11.39-11.66.48-.48,1.25-.65,2.16-1.1Z"/>
        </g>
        <path class="cls-2" d="M96.74,991c-2.93,3.94-5.78,7.76-8.78,11.78-6.1-3.24-11.04-7.75-16.85-11.62,3.51-4.91,6.86-9.61,10.53-14.75,5.33,3.88,10.47,7.63,15.9,11.59,3-4.04,5.89-7.94,9.05-12.2,5.65,4.26,10.94,8.25,16.48,12.43-3.56,4.76-6.88,9.18-10.52,14.05-5.29-3.77-10.47-7.46-15.82-11.27Z"/>
        <path class="cls-2" d="M793.58,849.41c3.41-4.78,6.56-9.18,10.02-14.04,5.19,3.64,10.2,7.16,15.55,10.92,3.51-3.64,5.61-8.48,9.39-12.52,5.08,3.84,10.08,7.61,15.38,11.61-2.88,5.3-6.3,10.05-9.82,15.13-5.23-3.86-10.17-7.51-15.28-11.29-2.93,4.15-5.69,8.05-8.67,12.25-5.83-3.58-10.94-7.79-16.58-12.08Z"/>
        <path class="cls-2" d="M921.85,858.98c-6.14-4-11.83-7.71-17.85-11.63,3.38-5.34,6.52-10.32,9.96-15.75,5.95,3.85,11.62,7.53,17.57,11.38-3.23,5.34-6.28,10.4-9.67,16Z"/>
        <path class="cls-2" d="M818.84,837.15c-3.4-2.28-6.15-4.07-8.82-5.96-2.26-1.6-4.43-3.33-7.07-5.32,2.91-4.61,5.75-9.11,8.85-14.03,5.72,3.96,10.98,7.61,16.59,11.49-3.25,4.71-6.31,9.13-9.55,13.82Z"/>
      </g>
      <g>
        <path class="cls-2" d="M890.19,671.77c.08.95.34,1.86.19,2.7-.25,1.36-.72,2.69-1.18,4-1.17,3.31-.07,5.99,2.35,8.21,2.94,2.68,6.44,3.99,10.47,3.58,1.67-.17,3.25-.62,4.44-2.54-.55-1.02-1.31-2.16-1.8-3.41-.49-1.24-1.04-2.59-1-3.87.08-2.54,3.23-10.35,4.98-13.09,1.71,1.12,2.26,2.93,2.95,4.65,2.36,5.9,1.99,11.9.5,17.9-.61,2.45-1.24,4.92-2.18,7.26-3.83,9.56-16.63,12.09-23.96,4.77-1.33-1.33-2.46-2.87-3.77-4.43-1.73.64-2.19,2.35-2.97,3.68-4.79,8.18-14.1,10.63-22.48,8.97-4.99-.99-8.34-4.08-10.07-8.86-.56-1.54-1.02-3.12-1.58-4.84-1.76.24-2.51,1.64-3.44,2.7-3.01,3.44-6.1,6.79-10.07,9.17-7.03,4.21-14.46,4.35-22,1.89-3.13-1.02-5.2-3.54-6.64-6.48-.66-1.34-1.18-2.76-2.03-4.79-1.03,1.59-1.73,2.84-2.58,3.97-1.88,2.52-3.58,5.26-5.83,7.41-3.5,3.34-7.97,4.3-12.73,3.59-5.09-.76-8.66-3.39-10.06-8.53-.32-1.18-.71-2.34-1.2-3.93-.78.9-1.31,1.52-1.84,2.15-2.29,2.7-4.34,5.64-6.9,8.05-5.56,5.25-12.27,5.62-19.2,3.43-3.48-1.1-5.65-3.83-6.69-7.27-.73-2.4-1.13-4.91-1.79-7.88-.87.82-1.62,1.53-2.37,2.23-3.42,3.19-6.55,6.76-10.3,9.5-11.78,8.63-28.71,5.73-37.08-6.19-1.88-2.68-3.24-5.71-4.89-8.55-1.08-1.85-2.1-3.77-3.43-5.44-1.93-2.42-3.64-2.83-6.33-1.29-2.06,1.18-4.06,2.66-5.64,4.41-4.87,5.38-8.89,11.36-11.64,18.12-1.62,3.98-2.94,8.1-4.79,11.97-1.62,3.39-3.43,6.82-5.82,9.68-3.72,4.46-8.91,4.72-13.58,1.25-3.87-2.88-6.31-6.88-8.32-11.15-2.73-5.8-3.96-11.99-4.4-18.34-.59-8.5-.23-16.95,1.9-25.24.42-1.63.64-3.48,2.37-4.46,1.7,1.1.94,2.59.92,3.88-.08,7.2-.42,14.4-.23,21.6.14,5.34,1.51,10.51,4.13,15.25,1.37,2.48,3.18,4.58,5.73,5.93,3.14,1.67,6.37,1.47,8.67-1.21,2.02-2.36,3.69-5.13,5-7.95,2.29-4.93,3.82-10.22,6.33-15.02,2.92-5.58,6.23-11.03,10-16.07,2.2-2.95,5.37-5.4,8.56-7.35,5.55-3.4,9.68-2.33,13.42,2.91,1.39,1.95,2.5,4.1,3.7,6.18,1.07,1.86,2.02,3.8,3.13,5.64,7.48,12.47,21.65,12.58,29.88,7.8,4.13-2.39,7.81-5.58,11.57-8.56,2.08-1.65,3.87-3.65,5.86-5.41.84-.74,1.8-1.47,2.84-1.85,2.08-.75,3.5.57,3.1,2.75-.11.62-.38,1.2-.57,1.8-2.23,7.04,1.72,13,9.14,13.79,4.95.53,9.44-.78,12.94-4.26,2.85-2.84,5.24-6.14,7.82-9.25,1.21-1.46,2.23-3.11,3.6-4.39.69-.64,2.12-1.11,2.96-.84,1.41.45.83,1.8.56,2.92-.4,1.69-1.09,3.47-.9,5.12.81,6.99,7.83,10.35,14.36,7.05,2.93-1.48,4.98-3.89,6.72-6.56,1.38-2.12,2.57-4.36,3.87-6.53.45-.76.91-1.53,1.48-2.21.87-1.03,1.67-2.5,3.37-1.76,1.55.67,1.14,2.14.84,3.33-1.42,5.74,3.42,11.99,11.33,12.98,7.98,1,14.75-1.79,20.44-7.22,3.2-3.06,6.13-6.4,9.21-9.59.88-.91,1.75-1.87,2.81-2.53.64-.4,1.84-.61,2.39-.27.52.32.66,1.47.71,2.27.03.59-.32,1.21-.56,1.8-2.11,5.36.88,10.73,6.12,13,6.67,2.9,14.83.53,18.82-5.56,2.77-4.23,5.25-8.65,7.96-12.92.91-1.44,1.79-3.12,4.43-3.34Z"/>
        <path class="cls-2" d="M272.28,700.89c-.66,1.88-1.17,3.41-1.73,4.93-5.03,13.52-19.22,14.34-27.33,9.9-3.75-2.05-5.97-5.38-7.01-9.49-.4-1.56-.71-3.15-1.25-5.62-1.14,1.5-1.86,2.41-2.53,3.35-4.54,6.35-9.76,11.95-16.82,15.61-10.1,5.24-21.52,3.04-28.94-5.59-4.26-4.96-6.52-10.77-7.55-17.13-2.28-14.14-2.85-28.42-3.79-42.68-.97-14.89-1.85-29.78-3.14-44.64-.55-6.27-1.97-12.47-3.18-18.67-.45-2.32-1.4-4.55-2.28-7.3-1.35,1.26-2.31,2.16-3.29,3.07-1.82-4.12,3.04-17.53,7.73-21.3,1.77.86,2.17,2.66,2.77,4.28,3.14,8.47,5.09,17.27,5.87,26.22,1.52,17.51,2.57,35.05,3.89,52.58.95,12.61,1.94,25.21,3.06,37.8.41,4.6,2.04,8.86,4.92,12.56,3.47,4.47,8.03,6.86,13.71,7.07,7.05.27,13.39-1.8,18.46-6.65,4.29-4.1,8.12-8.68,12.06-13.13,1.43-1.61,2.73-3.08,5.51-1.7,0,1.02.05,2.24,0,3.45-.46,9.75,4.63,14.99,14.44,14.61,2.36-.09,4.86-.48,7.02-1.39,3.46-1.46,6.45-4.47,5.62-9.29-1.16-6.72-1.91-13.58-3.92-20.05-2.43-7.82.34-14.35,3.33-21.07.08-.19.41-.26,1.1-.66.51,1.28,1.12,2.45,1.45,3.69,2.34,8.79,4.59,17.61,6.93,26.4.94,3.54,1.79,7.13,3.1,10.54,4.96,13,20.19,15.46,29.84,4.79.97-1.07,1.42-3,1.37-4.51-.16-5.18-.5-10.36-1.02-15.51-2.34-22.89-4.79-45.77-7.17-68.66-.61-5.91-1.06-11.84-1.74-17.74-.32-2.73-1.03-5.42-1.54-8.14-.16-.85-.44-1.76-.28-2.58.98-5.22,2.63-10.22,5.13-15,2.56,2.11,12.53,23.53,14.25,30.41.35,1.42,1.02,2.9-.49,4.61-1.96-1.64-3.85-3.22-6.28-5.24,0,1.51-.09,2.54.01,3.56,1.83,17.48,3.7,34.95,5.54,52.43,1.15,10.95,2.15,21.9,1.83,32.93-.23,7.66-1.86,14.96-4.74,22.11-6.04,15.03-27.75,18.53-38.33,4.15-1.63-2.21-2.92-4.66-4.57-7.33Z"/>
        <path class="cls-2" d="M964.33,701.32c-2.15.24-3.63.35-5.1.58-5.92.91-11.82,1.2-17.79.15-9.07-1.61-13.52-7.39-12.1-16.46,1.16-7.38,4.74-13.59,10.34-18.51,4.78-4.21,10.94-4.32,16.08-.53,4.27,3.15,7.24,7.39,9.76,11.97.97,1.76,1.88,3.55,2.97,5.61,7.54-1.59,14.6-3.69,19.37-10.18,1.49-2.03,2.8-4.22,4-6.44,3.3-6.05,7.43-11.45,12.33-16.28.27-.27.54-.54.82-.79,8.22-7.46,16.57-6.12,21.71,3.73,5.3,10.15,5.55,20.61.85,31.06-2.23,4.95-4.24,5.92-9.65,5.07-9.12-1.44-17.17-5.16-24.03-11.37-.26-.24-.58-.42-1.13-.8-2.53,4.85-4.55,9.91-8.56,13.72-3.93,3.73-8.46,6.4-13.52,7.93-1.03,3.93-1.91,7.72-3.03,11.45-1.67,5.53-4.58,10.41-8.41,14.72-8.88,9.97-18.8,18.78-30.02,26.08-6.2,4.04-12.79,7.28-20.27,8.17-7.82.93-15.22-.05-21.46-5.38-5.3-4.53-7.74-10.57-8.64-17.25-1.44-10.74.32-21.16,3.58-31.39.23-.72.56-1.41.94-2.06.17-.28.57-.43.89-.65,1.71.99.94,2.37.75,3.68-.67,4.74-1.47,9.48-1.86,14.25-.33,4.06.5,8.02,2.02,11.86,2.35,5.95,6.81,9.3,12.88,10.65,9.17,2.04,17.68-.32,25.62-4.68,13.09-7.18,24.67-16.38,34.73-27.41,1.77-1.94,3.15-4.26,4.55-6.51.61-.99.79-2.24,1.36-3.98ZM1003.12,665.35c2.28,4.12,12.02,9.37,17.01,9.05-.46-3.74-1.83-7.06-4.26-9.89-4.22-4.92-8.98-4.56-12.75.84ZM938.57,683.33c2.83,3.51,9.64,4.8,15.75,2.85-1.55-2.4-3.52-4.27-5.83-5.8-4.41-2.92-7.36-2.04-9.92,2.96Z"/>
        <path class="cls-2" d="M511.86,694.07c-5.36,15.35-17.23,24.56-29.18,33.59-6.27,4.74-13.05,8.75-20.68,11.09-4.41,1.35-8.9,2.02-13.51,1.6-7-.64-11.37-4.57-13.52-11.04-1.74-5.24-2.33-10.74-1.28-16.12,1.4-7.18,3.39-14.24,5.22-21.33.45-1.74.61-1.69,2.4-3.21,1.05,1.3.4,2.66.17,3.94-.98,5.22-2.04,10.42-3.01,15.64-.23,1.23-.34,2.52-.29,3.77.33,7.97,4.64,12.27,12.62,12.81,4.82.33,9.35-.77,13.68-2.68,15.21-6.72,28.06-16.63,38.96-29.1.33-.38.6-.82.94-1.19,3.65-4.1,4.35-8.6,3.19-14.05-3.25-15.2-8.65-29.59-15.39-43.52-1.33-2.76-1.98-5.41-1.42-8.37.63-3.35,1.24-6.7,1.93-10.04.14-.7.57-1.33,1.11-2.55,1.09,1.44,1.95,2.46,2.69,3.56,8.45,12.53,14.17,26.26,17.58,40.92,2.06,8.86,3.42,17.88,5.35,26.77.88,4.05,2.07,8.1,3.71,11.9,2.61,6.04,7.48,9.14,14.18,8.83,8.53-.38,15.48-3.63,19.68-11.47,1.01-1.89,2.1-3.79,2.79-5.81,2.67-7.85,7.74-14.16,13-20.34,1.05-1.24,2.31-2.37,3.64-3.32,5.92-4.23,12.95-3.14,16.93,2.98,6.44,9.92,7.85,20.64,4.06,31.93-.2.6-.5,1.16-.78,1.73-2.31,4.61-4.7,5.89-9.78,5.26-8.62-1.06-15.46-4.07-23.91-10.63-.39.77-.75,1.48-1.12,2.19-2.44,4.7-4.45,9.71-7.44,14.04-4.17,6.04-9.87,10.11-17.73,10.19-8.12.08-14.29-3.43-18.17-10.35-2.2-3.93-3.51-8.36-5.13-12.6-.62-1.62-.99-3.34-1.48-5.01ZM588.56,690.59c-.4-5.19-2.3-8.73-5.64-11.47-3.88-3.19-8.35-2.16-11.09,2.67,4.27,4.86,10.02,6.94,16.73,8.8Z"/>
        <path class="cls-2" d="M53.83,681.24c-.51,2.17-.95,4.37-1.54,6.52-1.95,7.13-3.07,14.3-1.96,21.73,2.13,14.21,12.91,25.21,27.12,27.53,10.8,1.77,21.24.24,31.41-3.42,15.05-5.41,28.8-13.11,40.83-23.71,5.55-4.89,5.75-5.46,3.09-12.27-1.33-3.41-3.03-6.68-4.33-10.1-2.65-6.96-5.37-13.91-7.62-21.01-1.72-5.41-.49-10.63,2.77-15.98,6.43,4.84,10.79,10.98,15.83,16.58-1.86,2.2-3.96.22-5.8,1.24-1.16,1.08-.48,2.38.12,3.63,1.2,2.51,2.52,4.96,3.67,7.49,4.45,9.71,4.95,19.75,2.38,30.01-1.39,5.54-4.15,10.31-8.38,14.17-13.56,12.39-28.96,21.61-46.6,27.02-7.46,2.29-15.06,3.57-22.87,3.03-14.02-.97-25.46-6.52-32.53-19.16-3.06-5.48-4.46-11.55-5-17.77-.87-9.98.57-19.67,4.12-29.04.97-2.55,2.08-5.07,4.19-6.89.37.13.73.25,1.1.38Z"/>
        <path class="cls-2" d="M408.21,644.51c5.85,5.26,13.46,14.35,14.39,17.3h-5.32c1.36,2.87,2.35,5.32,3.64,7.61,6.43,11.38,6.33,23.24,2.34,35.22-1.88,5.66-6.15,9.84-10.62,13.63-13.9,11.81-29.55,20.89-45.96,28.73-1.24.59-2.58,1.09-3.93,1.33-10.72,1.94-21.46,3.83-32.2,5.68-3.96.68-7.94,1.2-12.65,1.9.65-1.34.78-2.17,1.24-2.45,1.29-.79,2.71-1.37,4.09-2,14.63-6.7,29.39-13.13,43.87-20.15,14.73-7.14,28.75-15.57,41.87-25.39,3.33-2.49,6.21-5.57,9.33-8.34,1.67-1.48,1.89-3.21,1.05-5.14-1.26-2.89-2.58-5.76-3.87-8.65-2.61-5.89-5.22-11.78-7.82-17.67-.31-.69-.43-1.55-.91-2.06-2.6-2.74-2.41-5.88-1.67-9.24.75-3.42,1.13-6.93,3.14-10.32Z"/>
        <path class="cls-2" d="M339.3,564.36c5.58,7.2,15.08,31.8,14.02,36.44-2.89-.57-4.04-3.56-6.8-5.1,0,1.65-.1,2.86.02,4.04,1.38,13.58,2.87,27.15,4.19,40.73,1.39,14.21,2.93,28.42,3.83,42.66.75,11.81-.59,23.49-4.98,34.64-.61,1.55-.81,3.51-3.15,4.24-.18-.78-.49-1.45-.45-2.11,1.29-22.47-1.76-44.65-4.16-66.9-2.26-20.86-3.98-41.77-6.03-62.65-.26-2.6-1.07-5.14-1.59-7.72-.22-1.09-.74-2.31-.45-3.27,1.36-4.59,2.94-9.12,4.49-13.66.15-.43.6-.76,1.09-1.35Z"/>
        <path class="cls-2" d="M448.87,712.47c-.17-1.79-.32-2.53-.31-3.27.17-13.43-1.16-26.76-2.5-40.09-2.05-20.24-4.25-40.47-6.32-60.7-.66-6.41-1.05-12.85-1.72-19.26-.19-1.84-.72-3.73-1.52-5.39-.94-1.94-1.29-3.77-.63-5.82,1.21-3.73,2.34-7.47,3.58-11.19.31-.92.87-1.76,1.34-2.68,4.03,3.61,15.07,30.99,14.71,36.66-2.99-.46-3.8-4-6.96-4.78.38,3.85.7,7.43,1.09,11.01,2.06,19.1,4.29,38.18,6.16,57.29,1.34,13.64,1.33,27.28-2.73,40.6-.55,1.81-1.16,3.61-1.92,5.34-.29.66-1.07,1.11-2.27,2.28Z"/>
        <path class="cls-2" d="M643.61,621.38c5,3.22,9.45,6.09,14.26,9.19,1.81-3.52,3.46-6.72,5.17-10.04,3.16.7,5.28,2.8,7.71,4.28,2.48,1.51,4.82,3.24,7.62,5.15-2.15,4.48-4.63,8.64-7.6,13.13-4.52-2.78-8.89-5.47-13.72-8.44-1.88,3.24-3.67,6.33-5.58,9.62-5.21-2.9-10.13-5.69-14.82-9.77,2.28-4.3,4.5-8.49,6.95-13.11Z"/>
        <path class="cls-2" d="M227.84,743.99c2-3.33,3.79-6.32,5.8-9.66,5.37,2.43,9.7,5.82,14.06,9.01-1.03,4.28-4.1,9.91-7.3,13.32-4.1-2.67-8.27-5.39-12.61-8.23-2.02,3.21-3.83,6.06-5.84,9.26-5.46-2.43-9.7-6.14-14.55-9.47,2.44-4.37,4.7-8.41,7.15-12.79,4.96,2.06,8.65,5.58,13.29,8.56Z"/>
        <path class="cls-2" d="M925.39,655c-.83-3.94.38-6.38,3.4-8.08,1.29-.73,2.4-1.77,3.87-2.88-1.03-.51-1.69-.84-2.35-1.15-4.28-2.02-6.13-5.75-4.79-10.26.53-1.78,1.37-3.62,2.56-5.02,2.37-2.79,4.92-5.46,7.7-7.83,1.36-1.16,3.33-1.9,5.14-2.2,3.59-.61,6.23,2.21,5.47,5.75-.44,2.04-1.43,3.96-2.28,6.21-1.74-.94-3.02-1.7-4.36-2.33-1.84-.87-3.68-.88-5.39.37-2.68,1.96-2.75,4.09-.11,6.12,2.89,2.22,6.08,3.15,9.61,1.62,2.66-1.16,5.28-2.43,7.91-3.68,1.22-.58,2.41-1.24,3.93-2.02.84,4.13.09,7.33-3.22,9.57-2.2,1.49-4.54,2.76-6.84,4.1-5.13,2.99-10.27,5.97-15.4,8.95-1.52.88-3.05,1.73-4.85,2.76Z"/>
        <path class="cls-2" d="M265.15,747.52c2.09-3.86,4-7.4,5.93-10.92.88-1.61,2.23-1.46,3.59-.77,4.29,2.2,8.19,4.96,12.02,8.23-1.88,4.75-4.32,8.94-7.55,13.23-4.76-3.32-9.27-6.47-14-9.77Z"/>
      </g>
    </g>
    <g>
      <path class="cls-2" d="M532.33,195.19c.46,12.58,4.07,24.12,10.02,35.19-10.48-35.61.93-64.51,26.5-89-.67,10.66-1.35,21.44-2.02,32.21.46.07.91.15,1.37.22,2.95-19.51,5.55-39.2,22.33-52.67,5.9-4.74,12.08-9.13,18.14-13.68.26.28.52.55.77.83-1.45,3.93-2.91,7.86-4.36,11.79.39.29.78.58,1.17.86.16-.49.28-1,.48-1.47,5.33-12.3,15.22-19.65,26.77-25.65,18.14-9.42,37.45-14.2,57.61-16.16,1.56-.15,3.13-.32,4.69-.47.06,0,.13.13.31.33-3.25,2.51-6.62,4.87-9.73,7.54-9.43,8.11-15.69,18.59-21.11,29.54-3.99,8.06-7.1,16.55-10.87,24.72-.98,2.12-2.57,4.48-4.53,5.52-6.85,3.64-13.98,6.74-21.01,10.05-.59.28-1.19.55-1.79.82.13.33.26.66.39.99,7.97-3.21,15.93-6.42,24.5-9.88-10.22,26.42-30.75,41.51-54.83,53.09,11.44-1.94,21.72-6.54,32.1-11.74-.06.71,0,1.17-.15,1.54-4.7,11.21-9.38,22.43-14.14,33.62-3.31,7.77-8.78,14.05-15.37,18.96-10.2,7.58-20.98,14.4-31.51,21.53-.82.56-1.7,1.04-2.55,1.56.12.3.25.61.37.91,7.25-2.7,14.73-4.93,21.69-8.25,6.92-3.3,13.33-7.7,19.57-11.39-8.87,20.02-24.68,34.65-43.19,46.9,9.09-1.02,17.5-3.54,24.85-9.02.2.22.4.44.61.66-.64.76-1.23,1.57-1.94,2.26-7.57,7.29-15.26,14.52-25.05,18.77-7.51,3.26-11.19,8.63-11.14,16.74.02,2.37-.54,4.77-.28,7.09.19,1.73,1.45,3.32,1.9,5.06.53,2.03,1.65,4.66.87,6.17-7.48,14.44-9.4,29.97-9.8,45.87,0,.31-.16.61-.46,1.66-3.83-8.4-7.33-16.25-8.56-24.84-2.29-16.01-3.35-32.11-2.72-48.28.1-2.59-1.34-3.91-3.1-5.19-9.22-6.73-14.93-16-19.03-26.5,5.01,4.7,9.32,10.27,16.74,12.95-5.82-10.16-11.19-19.91-13.5-30.94-.83-3.95-1.48-7.94-1.81-12.08,4.37,8.64,8.12,17.57,15.08,24.72-10.47-28.73-6.69-56.39,5.73-83.48ZM634.72,116.72c-41.93,37.28-69.24,83.76-84.93,137.24-10.32,35.18-13.47,71.07-8.06,107.53.83-4.04,1.34-8.12,1.41-12.21.38-22.05,2.97-43.89,6.42-65.62,3.82-24.05,11.45-47.01,21.13-69.28,11.48-26.39,25.96-51.05,43.88-73.61,6.5-8.19,13.42-16.04,20.15-24.05Z"/>
      <g>
        <path class="cls-2" d="M728.81,338.47c-8.6-15.45-16.9-30.37-25.22-45.29-5.1-9.15-10.17-18.31-15.34-27.42-2.66-4.68-5.05-9.55-9.85-12.67-1.59-1.03-2.59-2.97-4.45-5.21,7.49,0,14.09-.1,20.67.1,1.06.03,2.44,1.23,3.07,2.27,12.19,20.13,24.33,40.29,36.4,60.49,8.6,14.39,17.09,28.85,25.62,43.29.33.56.62,1.15,1.14,2.13-75.7-10.78-143.99,5.28-203.97,53.18,21.82-23.83,47.5-41.9,77.77-53.55,30.13-11.59,61.4-16.51,94.17-17.32Z"/>
        <path class="cls-2" d="M361.54,338.58c66.64,1.19,125.69,20.31,171.91,70.59-59.79-48.33-128.42-62.84-203.71-53.09,2.72-4.61,5.32-9.06,7.96-13.48,10.36-17.32,20.67-34.66,31.11-51.93,8.33-13.78,16.82-27.46,25.29-41.15.35-.57,1.19-1.16,1.83-1.19,6.7-.4,13.41-.69,20.12-1.01.12.34.24.68.36,1.03-1.36,1.54-2.5,3.37-4.12,4.56-6.25,4.59-9.27,11.47-12.9,17.88-10.92,19.31-21.72,38.68-32.54,58.04-1.79,3.2-3.51,6.45-5.31,9.76Z"/>
        <path class="cls-2" d="M540.22,407.75c-40.15-52-95.23-74.04-159.17-79.4,2.66-4.91,5.23-9.6,7.76-14.31,6.49-12.11,12.97-24.22,19.44-36.33,8.66-16.21,17.33-32.4,25.9-48.66,1.02-1.93,2.15-2.57,4.24-2.23,21.2,3.38,39.61,12.51,55.55,26.79.05.05.02.2.04.76-2.23-1.21-4.22-2.39-6.3-3.39-11.98-5.74-24.43-9.93-37.73-11.31-2.45-.25-3.94.28-5.07,2.61-5.72,11.75-11.66,23.4-17.36,35.16-6.28,12.95-12.38,25.99-18.53,38.92,56.5,12.48,102.69,39.34,131.25,91.4Z"/>
        <path class="cls-2" d="M618.68,244.17c1.25-2.59,2.61-5.53,4.11-8.39.32-.6,1.08-1.17,1.74-1.36,8.65-2.53,17.32-4.99,25.99-7.47,3.15-.9,4.96-.06,6.63,3.13,11.83,22.66,23.96,45.17,35.92,67.76,5.3,10,10.43,20.1,15.9,30.67-4.2.41-7.95.79-11.7,1.13-15.28,1.41-30.33,4.2-44.84,9.17-12,4.11-23.98,8.48-35.47,13.8-13.71,6.36-26.56,14.59-37.76,24.71-9.23,8.34-17.1,18.17-25.56,27.36-.68.73-1.26,1.55-2.19,2.06,13.07-24.5,31.14-44.43,54.54-59.57,23.23-15.03,48.56-24.8,76.05-30.79-4.06-8.39-8.1-16.74-12.13-25.1-7.93-16.44-15.89-32.87-23.76-49.35-1.04-2.18-2.21-3.04-4.71-2.48-7.55,1.69-15.15,3.17-22.75,4.73Z"/>
        <path class="cls-2" d="M728.3,369.67c-.71-2.1-1.16-3.59-1.73-5.04-.57-1.45-1.27-2.85-2.23-4.96,2.95.19,5.45.3,7.93.51,2.59.21,5.18.82,7.75.69,3.82-.19,5.9,1.73,7.72,4.74,5.08,8.38,10.33,16.65,15.52,24.97.28.46.53.93,1.32,2.31-76.6-20.08-148.41-11.34-215.67,30.58,8.34-11.04,47.31-37.1,83.23-46.94,31.45-8.62,63.27-12.12,96.18-6.86Z"/>
        <path class="cls-2" d="M326.7,391.73c5.63-9.08,11.28-18.15,16.87-27.26,1.33-2.17,2.88-3.29,5.65-3.34,5.36-.11,10.72-.75,16.53-1.21-1.82,3.63-3.35,6.7-4.91,9.81,67.94-9.02,127.91,8.58,180.1,52.72-32.01-19.21-65.9-33.13-103.34-37.64-37.34-4.5-74.08-1.53-110.46,7.78-.14-.29-.29-.57-.43-.86Z"/>
      </g>
      <g>
        <path class="cls-2" d="M757.12,291.44c-.75,12.03-1.49,24.06-2.3,37.01-3.87-6.03-7.24-11.15-10.42-16.39-.43-.71-.24-2.21.24-2.98,3.77-5.99,7.69-11.89,11.56-17.82.31.06.61.12.92.17Z"/>
        <path class="cls-2" d="M331.31,302.62c.75,12.03,1.49,24.06,2.3,37.01,3.87-6.03,7.24-11.15,10.42-16.39.43-.71.24-2.21-.24-2.98-3.77-5.99-7.69-11.89-11.56-17.82-.31.06-.61.12-.92.17Z"/>
        <path class="cls-2" d="M667.7,392.23c-6.91,6.26-12.95,12.3-19.56,17.63-13.07,10.53-26.19,21.04-39.79,30.87-13.03,9.42-26.47,18.31-40.15,26.76-9.47,5.84-19.44,11.02-29.58,15.61-14.05,6.36-28.27,12.46-42.79,17.65-21.42,7.66-43.47,12.96-66.38,13.61-16.61.48-32.95-1.17-48.36-7.97-23.83-10.53-38.29-28.69-43.18-54.24-3.39-17.72-2.23-35.28,3.29-52.5.17-.54.65-.99,1.72-1.31-.12,1.57-.19,3.15-.36,4.71-1.51,13.61-.88,27.08,3.49,40.13,5.45,16.27,15.65,28.59,30.94,36.82,19.42,10.46,40.27,11.66,61.53,10,20.16-1.57,39.45-7.15,58.34-14.11,27.93-10.28,54.38-23.61,79.13-40.09,13.87-9.23,27.12-19.38,40.61-29.19,3.36-2.44,6.26-5.63,9.87-7.57,3.27-1.76,7.14-2.7,10.86-3.28,9.36-1.46,18.78-2.51,28.18-3.7.4-.05.81.06,2.22.17Z"/>
        <path class="cls-2" d="M361.53,274.75c-2.83-4.82-5.85-9.54-8.44-14.49-2.92-5.58-5.61-11.3-8.03-17.12-.79-1.89-1.06-4.46-.49-6.4,7.64-25.99,19.63-49.79,35.63-71.7,14.35-19.65,31.61-36.29,51.63-49.79,11.15-7.52,23.41-13.54,35.61-19.31,16.63-7.85,34.41-12.1,52.63-14.51,30.79-4.07,60.77-.21,90.19,9.15,1.05.33,2.04.84,3.68,1.52-4.48,2.74-8.48,5.14-12.43,7.61-2.09,1.31-4.04,2.86-6.19,4.06-.84.47-2.09.49-3.08.33-15.52-2.54-31.12-3.98-46.86-3.37-14.93.58-29.45,3.28-43.92,7.09-21.04,5.55-40.03,15.25-57.59,27.61-15.52,10.93-29.2,24.01-40.63,39.4-11.98,16.13-21.4,33.61-28.61,52.28-5.32,13.78-9.29,27.98-11.16,42.7-.19,1.53-.52,3.04-.79,4.56-.38.12-.76.24-1.15.36Z"/>
        <path class="cls-2" d="M345.88,311.62c-5.56-8.27-11.28-16.36-16.58-24.72-11.4-17.96-20.68-37.01-27.05-57.3-7.02-22.37-9.67-45.22-4.17-68.4,4.47-18.84,15.65-32.89,31.7-43.42,15.96-10.47,33.76-14.79,52.48-16.03,14.94-.99,29.78.08,44.49,2.91,1.18.23,2.33.6,3.49.91.05.37.09.75.14,1.12-2.16.5-4.38,1.63-6.46,1.41-18.06-1.93-35.91-1.41-53.09,5.05-17.88,6.72-33.14,16.86-41.75,34.82-7.28,15.19-8.44,31.29-6.42,47.65,2.9,23.44,10.79,45.31,22.4,65.84,4.71,8.33,9.6,16.55,14.31,24.88.45.79.56,2.23.14,2.98-4.04,7.17-8.22,14.26-12.38,21.36-.15.26-.52.41-1.23.94Z"/>
        <path class="cls-2" d="M739.14,302.9c-2.68-4.35-5.22-8.45-7.74-12.56-1.65-2.69-2.98-5.66-5.02-8.01-2.61-2.99-1.84-5.25.03-8.21,12.39-19.55,21.87-40.42,27.7-62.85,3.55-13.66,5.01-27.61,3-41.62-2.97-20.66-12.49-37.36-30.63-48.71-12.84-8.03-26.75-12.26-41.74-13.35-.85-.06-1.69-.2-3.15-.38,2.76-3.26,4.78-5.96,9.27-5.87,17.23.36,34.12,2.91,49.72,10.26,22.36,10.53,37.32,27.57,42.37,52.38,3.47,17.05,1.94,33.84-2.21,50.58-4.67,18.81-11.77,36.68-21.05,53.62-6.37,11.64-13.5,22.87-20.55,34.71Z"/>
        <path class="cls-2" d="M541.26,490.81c6.3-3.28,11.97-6.24,17.65-9.19.3-.16.69-.18.93-.39,5.6-5,11.16-3.73,17.53-.99,18.42,7.94,37.8,12.81,57.59,15.78,21.21,3.18,42.4,3,62.96-3.91,21.17-7.11,36.22-21.01,44.25-42.11,5.54-14.55,5.01-29.64,3.88-44.78-.16-2.1-.35-4.2-.52-6.3.29-.08.59-.16.88-.24.58,1.72,1.3,3.4,1.71,5.16,3.99,17.32,5.28,34.77,2.34,52.41-3.41,20.51-14.25,36.19-30.99,48.11-15.44,11-33.05,15.05-51.54,16.52-19.69,1.56-38.98-1.08-58.05-5.6-23-5.46-45.1-13.54-66.58-23.34-.48-.22-.93-.51-2.04-1.13Z"/>
        <path class="cls-2" d="M736.23,395.4c-.3,3.71-1,6.76-.72,9.73,1.15,12.42,1.77,24.71-2.22,36.86-5.92,18.05-17.26,31.13-34.59,38.96-9.55,4.32-19.57,6.79-30.02,7.52-.88.06-1.76,0-2.83-.71,1.06-.27,2.11-.59,3.17-.81,9.53-2.03,18.84-4.68,27.31-9.66,16.5-9.71,26.07-24.19,28.8-43.05.88-6.03.83-12.2,1.21-18.31-.28-.01-.56-.02-.84-.03-4.33,6.23-8.53,12.56-13.02,18.67-14.09,19.22-30.45,36.13-50.13,49.78-4.99,3.46-9.7,5.49-15.85,4.2-4.26-.9-8.7-.9-14.1-1.4,20.48-10.18,37.72-23.12,53.06-38.65-3.05,2.48-6.15,4.91-9.16,7.44-14.63,12.34-31.05,21.77-48.84,28.51-3.86,1.46-9.04-.55-13.62-.96.01-.34.02-.69.03-1.03.36-.23.69-.57,1.09-.69,32.22-9.68,58.59-28.28,80.97-52.99,9.09-10.04,17-20.96,23.81-32.65,1.27-2.18,2.63-3.08,5.11-2.61,4.08.77,8.19,1.37,11.39,1.89Z"/>
        <path class="cls-2" d="M666.57,141.77c11.76,7.48,21.51,16.95,30.99,26.74.35-.36.71-.73,1.06-1.09-6.12-5.74-12.21-11.53-18.39-17.22-3.56-3.27-7.25-6.4-10.92-9.53-1.75-1.5-2.71-2.86-1.52-5.42,1.6-3.43,2.57-7.14,3.98-11.23,14.36,11.93,27.06,24.59,38.21,38.86,11.17,14.28,19.6,30.21,28.48,47.08.51-3.92,1.06-6.82,1.23-9.74.81-14.14,0-28-7.58-40.57-7.06-11.69-17.38-19.19-30.12-23.68-4.21-1.48-8.39-2.93-11.59-6.5-2.8-3.13-6.21-5.71-9.35-8.54.1-.27.21-.55.31-.82,3.39.42,6.81.68,10.17,1.29,10.91,1.96,21.03,5.97,30.13,12.33,12.76,8.91,19.39,21.56,22.08,36.62,2.51,14.01.21,27.63-2.86,41.24-.29,1.3-.74,2.81-.35,3.97,1.67,5.05-.12,9.55-1.83,14.08-1.34,3.54-2.88,7.01-4.4,10.66-4.32-9.1-8.24-17.9-12.61-26.47-9.46-18.56-21.77-35.02-37.2-49.05-5.5-5-11.22-9.79-16.95-14.53-4.16-3.43-4.24-3.33-.96-8.44Z"/>
        <path class="cls-2" d="M464.27,477.4c-12.42,2.35-23.93,5.08-35.69,4.1-3.39-.28-7.03-3.07-9.7-5.61-11.41-10.86-22.98-21.62-33.59-33.25-9.95-10.91-17.96-23.39-24.69-36.61-1.73-3.39-3.77-6.61-5.97-10.44,7.08-.95,13.82-1.91,20.58-2.75,6.91-.86,6.75-.71,10.34,5.47,8.32,14.32,17.68,27.88,28.95,40.12,10.76,11.69,22.99,21.58,35.92,30.65,4.12,2.89,8.63,5.22,13.85,8.33Z"/>
        <path class="cls-2" d="M522.58,456.15c-8.62,3.77-16.33,7.21-24.13,10.46-1.05.44-2.8.33-3.73-.28-13.22-8.81-26.6-17.4-39.43-26.75-10.47-7.63-20.45-15.97-30.29-24.41-7.78-6.67-15.04-13.96-22.5-21.01-.86-.82-1.48-1.89-2.76-3.56,5.72.26,10.73.41,15.73.75,5.63.38,11.28.69,16.86,1.51,2.29.34,4.71,1.56,6.51,3.05,10.6,8.74,20.66,18.18,31.64,26.41,12.24,9.18,25.2,17.41,37.98,25.87,4.28,2.83,8.94,5.07,14.12,7.96Z"/>
        <path class="cls-2" d="M397.87,238.7c15.7-40.12,41.27-71.62,79.68-91.27,26.71-13.67,55.37-19.68,86.18-16.42-3.71,4.23-6.81,7.91-10.11,11.41-.62.66-2.04.85-3.08.81-17.92-.77-35.31,2.25-52.29,7.62-22.6,7.14-42.12,19.47-59.64,35.4-14.71,13.37-25.4,29.46-34.4,46.9-.52,1-.85,2.09-1.29,3.13-.87,2.07-2.16,3.4-5.06,2.44Z"/>
        <path class="cls-2" d="M376.7,261.97c11.78-88.12,103.31-168.94,208.52-151.41-1.32,3.2-4,5.04-7.04,4.71-33.88-3.67-66.06,2.55-96.7,17.01-23.8,11.23-44.33,26.94-61.02,47.3-15.94,19.46-27.65,41.28-35.26,65.36-1.89,5.97-5.62,11.36-8.5,17.02Z"/>
        <path class="cls-2" d="M586.28,517.11c-17.11,7.65-82.34,4.48-98.51-4.83,3.33-1.13,6.53-2.14,9.68-3.31,6.65-2.47,13.44-4.66,19.85-7.65,6.26-2.92,12.59-2.49,18.76-1.08,7.41,1.7,14.62,4.32,21.84,6.78,9.47,3.23,18.86,6.69,28.39,10.08Z"/>
        <path class="cls-2" d="M410.89,120.27c-4.4,4.1-8.3,7.85-12.37,11.4-.81.71-2.24.89-3.41,1.01-20.15,2.09-36.74,10.32-47.56,28.07-6.82,11.19-8.46,23.71-7.82,36.5.32,6.39,1.64,12.74,2.54,19.1.26,1.87.6,3.73.91,5.59l-.79.32c-.43-.89-.94-1.75-1.28-2.67-5.53-15.19-8.1-30.8-5.68-46.89,3.46-23.09,16.99-38.22,38.21-46.88,11.25-4.6,23.14-5.79,35.18-5.81.53,0,1.07.13,2.08.26Z"/>
        <path class="cls-2" d="M584.88,466.94c6.24-4.21,12.35-8.61,18.74-12.58,9-5.58,18.34-10.6,27.28-16.27,17.97-11.4,33.3-25.76,46.41-42.5,2.37-3.02,4.61-6.22,9.29-4.73-22.53,41.42-62.76,66.47-101.71,76.08Z"/>
        <path class="cls-2" d="M702.62,242.39c-2.44-1.26-3.93-2.68-5.39-2.65-4.2.1-5.69-2.39-7.27-5.67-10-20.81-23.86-38.69-41.33-53.79-.6-.52-1.2-1.02-1.78-1.56-.15-.14-.23-.37-.49-.82,1.82-2.53,3.72-5.16,5.98-8.3,23.21,19.66,38.91,44.22,50.27,72.79Z"/>
        <path class="cls-2" d="M420.64,480.72c-45.36-.2-75.54-32.62-67.09-79.4,5.43,8.89,8.75,18.38,10.3,28.82,3.29,22.22,16.12,37.23,37.1,45.07,5.15,1.92,10.63,2.96,15.95,4.42,1.25.34,2.49.72,3.74,1.09Z"/>
      </g>
    </g>
  </g>
</svg>