<?xml version="1.0" encoding="UTF-8"?>
<svg id="Layer_1" data-name="Layer 1" xmlns="http://www.w3.org/2000/svg" viewBox="0 0 1080 1080">
  <defs>
    <style>
      .cls-1 {
        fill: #000;
        stroke-width: 0px;
      }
    </style>
  </defs>
  <path class="cls-1" d="M523.93,321.78c.96,26.36,8.54,50.54,20.99,73.76-21.97-74.63,1.95-135.21,55.55-186.53-1.4,22.34-2.82,44.93-4.24,67.52.96.16,1.91.31,2.87.47,6.18-40.88,11.64-82.15,46.81-110.39,12.37-9.93,25.32-19.13,38.01-28.67.54.58,1.08,1.16,1.62,1.74-3.05,8.24-6.09,16.48-9.14,24.72.82.6,1.64,1.21,2.46,1.81.33-1.03.58-2.1,1.01-3.09,11.17-25.79,31.91-41.18,56.11-53.75,38.01-19.74,78.48-29.75,120.74-33.86,3.28-.32,6.55-.67,9.83-.98.12-.01.26.28.64.7-6.82,5.26-13.88,10.21-20.39,15.81-19.77,16.99-32.89,38.97-44.23,61.91-8.36,16.89-14.88,34.68-22.78,51.81-2.04,4.44-5.39,9.39-9.48,11.56-14.36,7.62-29.31,14.13-44.04,21.07-1.24.59-2.5,1.15-3.75,1.73.27.69.55,1.38.82,2.07,16.7-6.73,33.39-13.47,51.34-20.7-21.43,55.37-64.46,87-114.91,111.27,23.97-4.07,45.53-13.71,67.27-24.6-.13,1.48,0,2.45-.32,3.23-9.84,23.5-19.66,47.01-29.64,70.45-6.93,16.29-18.39,29.46-32.22,39.73-21.38,15.89-43.96,30.18-66.05,45.13-1.73,1.17-3.55,2.19-5.33,3.27.26.63.51,1.27.77,1.9,15.2-5.67,30.87-10.34,45.46-17.29,14.51-6.92,27.93-16.13,41.01-23.86-18.59,41.96-51.73,72.62-90.52,98.3,19.05-2.14,36.67-7.43,52.08-18.9.42.46.85.92,1.27,1.38-1.35,1.58-2.58,3.29-4.07,4.73-15.87,15.29-31.99,30.44-52.5,39.34-15.73,6.83-23.46,18.08-23.35,35.1.03,4.96-1.13,9.99-.59,14.86.4,3.63,3.04,6.95,3.98,10.6,1.11,4.26,3.46,9.76,1.82,12.93-15.69,30.25-19.69,62.82-20.55,96.14-.02.64-.34,1.28-.97,3.48-8.03-17.6-15.35-34.05-17.93-52.07-4.8-33.55-7.01-67.3-5.7-101.2.21-5.43-2.81-8.19-6.51-10.89-19.33-14.11-31.3-33.54-39.88-55.55,10.49,9.84,19.53,21.52,35.08,27.14-12.19-21.3-23.46-41.74-28.3-64.85-1.73-8.28-3.1-16.64-3.79-25.31,9.16,18.1,17.03,36.82,31.6,51.82-21.95-60.21-14.02-118.19,12.01-174.97ZM738.52,157.31c-87.89,78.14-145.12,175.54-178,287.64-21.63,73.73-28.24,148.96-16.89,225.36,1.74-8.47,2.8-17.02,2.95-25.59.8-46.21,6.22-91.98,13.45-137.53,8.01-50.4,23.99-98.54,44.29-145.19,24.06-55.3,54.41-107,91.97-154.27,13.63-17.16,28.12-33.63,42.22-50.41Z"/>
  <g>
    <path class="cls-1" d="M935.72,622.09c-18.02-32.37-35.42-63.66-52.85-94.93-10.69-19.17-21.31-38.38-32.16-57.46-5.58-9.8-10.59-20.01-20.64-26.56-3.33-2.17-5.42-6.22-9.32-10.91,15.7,0,29.52-.22,43.32.22,2.23.07,5.12,2.59,6.43,4.75,25.55,42.19,50.98,84.44,76.28,126.78,18.02,30.17,35.81,60.47,53.69,90.73.7,1.18,1.29,2.41,2.38,4.45-158.65-22.6-301.77,11.07-427.5,111.46,45.74-49.95,99.55-87.82,163-112.23,63.16-24.3,128.68-34.6,197.37-36.3Z"/>
    <path class="cls-1" d="M165.97,622.31c139.67,2.49,263.43,42.57,360.29,147.94-125.32-101.29-269.16-131.7-426.95-111.28,5.71-9.67,11.15-18.99,16.69-28.25,21.71-36.3,43.32-72.65,65.2-108.84,17.46-28.87,35.25-57.55,53-86.25.74-1.2,2.49-2.42,3.84-2.5,14.05-.84,28.11-1.45,42.16-2.12.25.72.5,1.44.76,2.15-2.85,3.22-5.24,7.06-8.63,9.55-13.1,9.63-19.43,24.03-27.03,37.48-22.89,40.46-45.51,81.08-68.21,121.65-3.76,6.72-7.35,13.52-11.12,20.46Z"/>
    <path class="cls-1" d="M540.46,767.29c-84.14-108.99-199.58-155.18-333.61-166.4,5.58-10.29,10.96-20.12,16.26-29.99,13.6-25.37,27.18-50.75,40.74-76.15,18.14-33.97,36.33-67.91,54.28-101.99,2.13-4.05,4.5-5.38,8.88-4.68,44.43,7.09,83.02,26.22,116.42,56.14.11.1.03.41.09,1.59-4.68-2.53-8.85-5.01-13.21-7.1-25.11-12.04-51.2-20.81-79.09-23.71-5.14-.53-8.26.59-10.63,5.46-11.99,24.63-24.44,49.04-36.38,73.69-13.16,27.15-25.95,54.47-38.83,81.58,118.43,26.17,215.21,82.45,275.08,191.56Z"/>
    <path class="cls-1" d="M704.9,424.44c2.62-5.42,5.47-11.59,8.61-17.59.66-1.26,2.25-2.45,3.65-2.86,18.13-5.31,36.31-10.45,54.46-15.67,6.6-1.89,10.4-.13,13.89,6.56,24.79,47.5,50.21,94.66,75.28,142.01,11.1,20.97,21.85,42.12,33.32,64.27-8.8.86-16.65,1.65-24.52,2.38-32.04,2.96-63.57,8.81-93.98,19.23-25.15,8.62-50.26,17.76-74.35,28.93-28.74,13.32-55.66,30.58-79.13,51.78-19.34,17.47-35.84,38.09-53.58,57.33-1.42,1.54-2.65,3.25-4.6,4.31,27.4-51.35,65.27-93.13,114.3-124.86,48.69-31.51,101.78-51.97,159.4-64.53-8.5-17.59-16.97-35.09-25.42-52.6-16.63-34.46-33.31-68.9-49.79-103.43-2.18-4.57-4.63-6.37-9.87-5.19-15.83,3.55-31.76,6.64-47.69,9.92Z"/>
    <path class="cls-1" d="M934.65,687.47c-1.49-4.39-2.43-7.53-3.62-10.56-1.2-3.04-2.67-5.97-4.67-10.39,6.19.39,11.41.64,16.63,1.06,5.42.44,10.86,1.72,16.24,1.44,8-.41,12.36,3.62,16.18,9.93,10.64,17.56,21.66,34.9,32.52,52.33.6.96,1.12,1.96,2.76,4.84-160.54-42.09-311.05-23.76-452.02,64.1,17.49-23.14,99.15-77.76,174.43-98.39,65.91-18.06,132.6-25.41,201.57-14.37Z"/>
    <path class="cls-1" d="M92.95,733.72c11.8-19.04,23.64-38.04,35.35-57.13,2.78-4.54,6.04-6.89,11.84-7.01,11.24-.23,22.46-1.57,34.64-2.53-3.81,7.61-7.03,14.04-10.29,20.55,142.4-18.9,268.08,17.98,377.46,110.5-67.1-40.27-138.12-69.43-216.59-78.88-78.26-9.43-155.27-3.2-231.51,16.3-.3-.6-.6-1.2-.9-1.8Z"/>
  </g>
  <g>
    <path class="cls-1" d="M995.05,523.51c-1.57,25.21-3.13,50.43-4.82,77.57-8.11-12.64-15.17-23.38-21.83-34.36-.9-1.48-.51-4.63.5-6.24,7.9-12.55,16.11-24.92,24.22-37.34.64.12,1.29.24,1.93.36Z"/>
    <path class="cls-1" d="M102.61,546.95c1.57,25.21,3.13,50.43,4.82,77.57,8.11-12.64,15.17-23.38,21.83-34.36.9-1.48.51-4.63-.5-6.24-7.9-12.55-16.11-24.92-24.22-37.34-.64.12-1.29.24-1.93.36Z"/>
    <path class="cls-1" d="M807.65,734.76c-14.47,13.13-27.14,25.78-41,36.95-27.4,22.08-54.9,44.1-83.4,64.7-27.31,19.73-55.47,38.38-84.15,56.08-19.85,12.25-40.74,23.09-62,32.72-29.45,13.33-59.26,26.11-89.68,36.99-44.89,16.05-91.12,27.15-139.12,28.54-34.82,1-69.06-2.45-101.36-16.71-49.95-22.06-80.26-60.13-90.5-113.68-7.1-37.14-4.68-73.94,6.9-110.02.36-1.14,1.36-2.07,3.6-2.75-.25,3.29-.4,6.6-.76,9.88-3.17,28.52-1.85,56.76,7.31,84.1,11.42,34.09,32.81,59.91,64.84,77.17,40.71,21.93,84.39,24.43,128.96,20.96,42.26-3.3,82.67-14.99,122.27-29.56,58.54-21.54,113.97-49.48,165.84-84.03,29.06-19.35,56.85-40.63,85.11-61.17,7.04-5.12,13.13-11.8,20.68-15.86,6.86-3.69,14.97-5.67,22.76-6.88,19.61-3.05,39.36-5.25,59.05-7.76.83-.11,1.7.12,4.65.36Z"/>
    <path class="cls-1" d="M165.94,488.53c-5.93-10.1-12.27-20-17.68-30.37-6.11-11.7-11.76-23.69-16.84-35.88-1.65-3.97-2.22-9.34-1.02-13.41,16.02-54.47,41.15-104.35,74.67-150.28,30.07-41.19,66.24-76.05,108.2-104.36,23.36-15.76,49.06-28.38,74.64-40.46,34.85-16.46,72.12-25.36,110.31-30.41,64.54-8.54,127.36-.44,189.02,19.17,2.2.7,4.28,1.76,7.72,3.19-9.38,5.73-17.77,10.77-26.06,15.96-4.39,2.75-8.47,6-12.98,8.51-1.76.98-4.37,1.03-6.46.69-32.53-5.33-65.21-8.33-98.21-7.06-31.29,1.21-61.73,6.87-92.05,14.86-44.1,11.63-83.89,31.96-120.7,57.87-32.54,22.91-61.21,50.33-85.15,82.58-25.1,33.82-44.85,70.45-59.96,109.57-11.16,28.88-19.47,58.64-23.39,89.49-.41,3.21-1.09,6.38-1.65,9.56-.8.25-1.6.5-2.4.75Z"/>
    <path class="cls-1" d="M133.16,565.8c-11.66-17.33-23.63-34.3-34.75-51.81-23.9-37.64-43.35-77.56-56.7-120.09-14.72-46.89-20.27-94.78-8.75-143.36,9.36-39.5,32.79-68.93,66.43-91,33.46-21.95,70.76-30.99,109.98-33.59,31.31-2.08,62.42.17,93.25,6.11,2.47.47,4.87,1.26,7.31,1.9.1.78.19,1.57.29,2.35-4.52,1.05-9.19,3.42-13.55,2.95-37.86-4.05-75.27-2.95-111.27,10.59-37.48,14.09-69.45,35.34-87.5,72.98-15.26,31.83-17.69,65.59-13.45,99.86,6.08,49.14,22.61,94.96,46.95,137.98,9.87,17.45,20.13,34.69,29.99,52.14.94,1.66,1.18,4.68.3,6.25-8.46,15.03-17.23,29.88-25.95,44.76-.32.55-1.08.85-2.58,1.96Z"/>
    <path class="cls-1" d="M957.37,547.53c-5.62-9.12-10.93-17.72-16.22-26.32-3.46-5.63-6.24-11.87-10.52-16.78-5.47-6.27-3.86-11,.07-17.21,25.96-40.97,45.84-84.72,58.06-131.73,7.44-28.62,10.5-57.86,6.28-87.23-6.23-43.31-26.17-78.3-64.19-102.09-26.9-16.83-56.06-25.7-87.48-27.98-1.78-.13-3.55-.42-6.6-.79,5.78-6.84,10.02-12.49,19.42-12.3,36.12.75,71.51,6.11,104.21,21.5,46.85,22.06,78.21,57.78,88.81,109.78,7.28,35.74,4.07,70.93-4.64,106-9.79,39.42-24.67,76.87-44.12,112.39-13.36,24.4-28.3,47.92-43.07,72.75Z"/>
    <path class="cls-1" d="M542.65,941.38c13.21-6.88,25.09-13.07,36.99-19.25.63-.33,1.45-.38,1.95-.82,11.73-10.49,23.4-7.82,36.73-2.08,38.6,16.64,79.23,26.85,120.7,33.06,44.44,6.65,88.86,6.29,131.96-8.19,44.38-14.91,75.92-44.04,92.75-88.25,11.61-30.5,10.5-62.13,8.13-93.85-.33-4.4-.73-8.8-1.1-13.19.61-.17,1.23-.34,1.84-.51,1.21,3.6,2.73,7.13,3.57,10.81,8.36,36.31,11.06,72.88,4.91,109.85-7.14,42.98-29.86,75.84-64.95,100.84-32.35,23.05-69.26,31.55-108.01,34.62-41.27,3.26-81.69-2.26-121.67-11.75-48.2-11.44-94.52-28.38-139.55-48.92-1.01-.46-1.95-1.07-4.27-2.37Z"/>
    <path class="cls-1" d="M951.28,741.4c-.64,7.77-2.09,14.17-1.51,20.38,2.42,26.03,3.71,51.79-4.65,77.25-12.41,37.83-36.18,65.24-72.51,81.66-20.02,9.05-41.02,14.23-62.92,15.76-1.84.13-3.7.02-5.92-1.49,2.22-.57,4.41-1.23,6.65-1.71,19.96-4.25,39.49-9.81,57.23-20.25,34.58-20.35,54.64-50.71,60.37-90.24,1.83-12.64,1.74-25.57,2.53-38.37-.59-.02-1.17-.05-1.76-.07-9.08,13.06-17.88,26.32-27.28,39.13-29.53,40.28-63.81,75.73-105.08,104.33-10.47,7.26-20.33,11.51-33.22,8.8-8.93-1.88-18.24-1.89-29.56-2.93,42.93-21.34,79.05-48.47,111.2-81.01-6.4,5.19-12.89,10.28-19.19,15.6-30.66,25.87-65.07,45.62-102.37,59.75-8.1,3.07-18.95-1.15-28.54-2.02.02-.72.05-1.44.07-2.15.76-.49,1.45-1.19,2.28-1.44,67.52-20.29,122.79-59.27,169.7-111.07,19.06-21.05,35.62-43.92,49.9-68.43,2.67-4.57,5.52-6.45,10.71-5.48,8.55,1.61,17.17,2.87,23.86,3.96Z"/>
    <path class="cls-1" d="M805.28,209.83c24.66,15.68,45.08,35.53,64.95,56.04.74-.76,1.49-1.53,2.23-2.29-12.83-12.04-25.58-24.17-38.54-36.08-7.45-6.85-15.19-13.4-22.89-19.98-3.67-3.14-5.68-5.99-3.18-11.36,3.34-7.18,5.38-14.97,8.34-23.53,30.1,25,56.72,51.55,80.09,81.44,23.4,29.94,41.07,63.31,59.7,98.67,1.06-8.22,2.22-14.3,2.57-20.42,1.69-29.63.02-58.68-15.89-85.04-14.79-24.5-36.42-40.23-63.13-49.62-8.82-3.1-17.59-6.14-24.3-13.63-5.87-6.56-13.02-11.98-19.61-17.9.22-.57.44-1.15.65-1.72,7.11.88,14.28,1.43,21.32,2.69,22.86,4.11,44.08,12.52,63.15,25.83,26.75,18.67,40.64,45.18,46.29,76.74,5.25,29.36.43,57.92-5.99,86.42-.61,2.72-1.54,5.89-.74,8.32,3.51,10.57-.25,20.02-3.84,29.5-2.81,7.42-6.05,14.69-9.23,22.35-9.04-19.06-17.27-37.51-26.43-55.48-19.82-38.89-45.63-73.39-77.98-102.81-11.53-10.49-23.51-20.51-35.53-30.44-8.71-7.2-8.89-6.97-2.02-17.7Z"/>
    <path class="cls-1" d="M381.28,913.26c-26.03,4.93-50.15,10.65-74.8,8.6-7.11-.59-14.73-6.44-20.32-11.77-23.92-22.76-48.16-45.32-70.39-69.68-20.86-22.86-37.63-49.02-51.75-76.73-3.62-7.1-7.9-13.86-12.52-21.89,14.84-1.99,28.96-4.01,43.12-5.77,14.47-1.8,14.14-1.49,21.67,11.47,17.43,30.01,37.05,58.43,60.67,84.08,22.55,24.49,48.17,45.23,75.29,64.23,8.64,6.05,18.09,10.93,29.02,17.45Z"/>
    <path class="cls-1" d="M503.5,868.73c-18.07,7.9-34.23,15.12-50.57,21.93-2.19.91-5.88.7-7.81-.59-27.71-18.46-55.76-36.48-82.65-56.07-21.94-15.99-42.86-33.47-63.49-51.16-16.31-13.99-31.53-29.25-47.15-44.04-1.81-1.71-3.11-3.97-5.78-7.46,11.99.55,22.49.86,32.96,1.57,11.8.79,23.65,1.44,35.33,3.17,4.79.71,9.86,3.27,13.65,6.4,22.22,18.32,43.31,38.1,66.31,55.35,25.66,19.24,52.82,36.49,79.6,54.21,8.96,5.93,18.74,10.62,29.6,16.69Z"/>
    <path class="cls-1" d="M242.11,412.97c32.91-84.09,86.5-150.1,167.01-191.3,55.97-28.64,116.05-41.24,180.61-34.41-7.78,8.87-14.28,16.58-21.19,23.9-1.31,1.39-4.28,1.78-6.45,1.69-37.55-1.6-74,4.72-109.59,15.97-47.37,14.97-88.27,40.8-125,74.18-30.84,28.02-53.23,61.75-72.1,98.29-1.08,2.09-1.78,4.38-2.7,6.55-1.82,4.34-4.53,7.13-10.61,5.12Z"/>
    <path class="cls-1" d="M197.74,461.74c24.68-184.69,216.53-354.08,437.03-317.34-2.76,6.72-8.39,10.57-14.75,9.88-71-7.7-138.45,5.34-202.67,35.66-49.88,23.54-92.91,56.46-127.88,99.14-33.42,40.78-57.96,86.52-73.9,136.99-3.95,12.51-11.77,23.81-17.82,35.66Z"/>
    <path class="cls-1" d="M636.99,996.48c-35.87,16.03-172.58,9.39-206.47-10.11,6.98-2.38,13.69-4.49,20.28-6.94,13.93-5.18,28.16-9.77,41.6-16.04,13.12-6.12,26.38-5.23,39.31-2.26,15.53,3.56,30.65,9.06,45.77,14.22,19.84,6.76,39.52,14.01,59.5,21.13Z"/>
    <path class="cls-1" d="M269.41,164.77c-9.23,8.59-17.4,16.44-25.92,23.9-1.71,1.49-4.69,1.86-7.16,2.11-42.23,4.39-76.99,21.64-99.68,58.84-14.3,23.45-17.73,49.69-16.39,76.51.67,13.4,3.44,26.69,5.31,40.03.55,3.92,1.26,7.81,1.9,11.72-.56.22-1.11.45-1.67.67-.9-1.86-1.98-3.66-2.68-5.6-11.59-31.83-16.97-64.54-11.91-98.28,7.26-48.38,35.62-80.1,80.08-98.25,23.59-9.63,48.5-12.13,73.74-12.18,1.12,0,2.23.27,4.36.54Z"/>
    <path class="cls-1" d="M634.07,891.34c13.07-8.82,25.88-18.05,39.27-26.36,18.85-11.69,38.44-22.21,57.17-34.09,37.65-23.9,69.78-54,97.27-89.08,4.96-6.33,9.67-13.04,19.46-9.92-47.22,86.82-131.54,139.32-213.18,159.45Z"/>
    <path class="cls-1" d="M880.83,420.72c-5.12-2.64-8.24-5.62-11.29-5.55-8.81.21-11.92-5.01-15.23-11.88-20.96-43.61-50.01-81.1-86.62-112.74-1.25-1.08-2.52-2.15-3.73-3.27-.32-.3-.48-.79-1.02-1.73,3.82-5.3,7.79-10.81,12.53-17.39,48.65,41.21,81.55,92.68,105.37,152.56Z"/>
    <path class="cls-1" d="M289.83,920.21c-95.07-.42-158.32-68.37-140.62-166.42,11.39,18.64,18.34,38.52,21.58,60.41,6.89,46.57,33.78,78.02,77.76,94.46,10.79,4.03,22.27,6.21,33.43,9.27,2.62.72,5.23,1.52,7.84,2.28Z"/>
  </g>
</svg>